<svg xmlns="http://www.w3.org/2000/svg" viewBox="0 0 110.82 51.05">
  <defs>
    <style>
      .\34 ec739ef-7b32-4da9-aaa1-92f1d2462032 {
        fill: #db6b49;
      }
    </style>
  </defs>
  <title>highlight_4</title>
  <g id="d5b19668-39a5-4561-bcc0-247af425a379" data-name="Layer 2">
    <g id="838f7848-3acb-4aca-8d69-a4a9f0d47205" data-name="Layer 1">
      <g>
        <path class="4ec739ef-7b32-4da9-aaa1-92f1d2462032" d="M109.95,22.37c-3.79-10.71-13.84-13.84-24-10.71,4.36-1.34-.25,0-1.11.15-1.27.2-2.53.28-3.8.39,1.23-.09,1,0,0,0l-.71.06.71-.06c-.3,0-.66,0-1.08,0Q78,12,76.14,11.79C73,11.38,70,10.71,67,10l-.53-.12-.14,0c-1.53-.47-3.08-.9-4.62-1.36C49.24,4.72,36.6.28,23.48,0,13-.22,2.25,6,.3,17.13c-1.62,9.19,3.45,21.7,14.5,21.93A79.28,79.28,0,0,1,32,41.54c.29.09,2.5.7,3.07.86,1.55.46,3.1.93,4.65,1.41,3.33,1,6.66,2,10,3C65.8,51.25,80.67,53,96.86,48,106.52,45.07,113.32,31.91,109.95,22.37Z"/>
        <polygon class="4ec739ef-7b32-4da9-aaa1-92f1d2462032" points="81.02 12.19 81.01 12.2 81.01 12.2 81.02 12.19"/>
      </g>
    </g>
  </g>
</svg>
