<svg xmlns="http://www.w3.org/2000/svg" viewBox="0 0 424.74 275.45">
  <defs>
    <style>
      .ac316f40-098d-442a-a07e-2afa07742128 {
        fill: #68aea0;
      }

      .b8832217-d30a-4d89-9939-d292770466e4 {
        fill: #da6b48;
      }

      .f887c285-9abe-46e1-8bbd-d3f981819a52 {
        fill: #eab154;
      }

      .a26df766-daaa-4152-ad7b-c3250c3c5f26 {
        fill: #6267a9;
      }
    </style>
  </defs>
  <g id="bceea6a6-200e-4385-9b42-68318e65952d" data-name="Layer 2">
    <g id="fb66be31-eb45-437a-b3c4-fde6b250b1af" data-name="Layer 1">
      <g>
        <g>
          <path class="ac316f40-098d-442a-a07e-2afa07742128" d="M250.27,46.76,244.61,57a471.73,471.73,0,0,0-25.84,54.14c-.09.24-.17.49-.25.65A428.25,428.25,0,0,0,186,275.45a185.53,185.53,0,0,0-49.22-126A483.81,483.81,0,0,1,181.85,37L202.36,0,233,29Q242.15,37.65,250.27,46.76Z"/>
          <path class="ac316f40-098d-442a-a07e-2afa07742128" d="M116.56,245.42a82,82,0,0,1,2.38,11.74A107.47,107.47,0,0,0,116.56,245.42Z"/>
          <path class="ac316f40-098d-442a-a07e-2afa07742128" d="M118.94,257.16a75.59,75.59,0,0,1,1.23,12.14A118.81,118.81,0,0,0,118.94,257.16Z"/>
          <path class="ac316f40-098d-442a-a07e-2afa07742128" d="M120.42,275.45h-.09c0-2.05-.08-4.1-.16-6.15C120.33,271.35,120.42,273.4,120.42,275.45Z"/>
        </g>
        <path class="b8832217-d30a-4d89-9939-d292770466e4" d="M424.74,76.78a272.74,272.74,0,0,0-85.39,189.4c-.09,3.12-.17,6.15-.17,9.27h-.08a330.31,330.31,0,0,0-3.61-49.14,336.18,336.18,0,0,0-29.12-96.22,329.67,329.67,0,0,1,24.12-42.57A336.78,336.78,0,0,1,379.62,29l40.61,43Z"/>
        <path class="f887c285-9abe-46e1-8bbd-d3f981819a52" d="M339.1,275.45H273.56a271.81,271.81,0,0,0-54.79-164.3c8.77-22.13,19.75-43.66,31.5-64.39C307.33,108.52,339.29,191.78,339.1,275.45Z"/>
        <path class="a26df766-daaa-4152-ad7b-c3250c3c5f26" d="M186,275.45H120.42c0-2.05-.09-4.1-.25-6.15a75.59,75.59,0,0,0-1.23-12.14,82,82,0,0,0-2.38-11.74,50,50,0,0,0-1.64-5.74,44,44,0,0,0-1.89-5.57,88.55,88.55,0,0,0-4.59-10.83,52.34,52.34,0,0,0-2.62-5.17,90.21,90.21,0,0,0-6.08-9.93,92.8,92.8,0,0,0-7.38-9.84c-1.23-1.56-2.54-3-3.85-4.43A120,120,0,0,0,0,155V89.41a185.79,185.79,0,0,1,136.66,60l.08.08A185.53,185.53,0,0,1,186,275.45Z"/>
      </g>
    </g>
  </g>
</svg>
