<svg xmlns="http://www.w3.org/2000/svg" viewBox="0 0 279.07 243.73">
  <defs>
    <style>
      .\35 89b448d-70bb-49d0-aa9e-0a313a680e79, .b25ecf2a-aceb-4e99-a0a8-1371b6a859e6, .f02b356c-ebb0-4bff-a4ef-8956a9f2e681 {
        fill: none;
        stroke-miterlimit: 10;
      }

      .b25ecf2a-aceb-4e99-a0a8-1371b6a859e6 {
        stroke: #fbb03b;
      }

      .b25ecf2a-aceb-4e99-a0a8-1371b6a859e6, .f02b356c-ebb0-4bff-a4ef-8956a9f2e681 {
        stroke-width: 7.54px;
      }

      .f02b356c-ebb0-4bff-a4ef-8956a9f2e681 {
        stroke: #69afa1;
      }

      .\35 89b448d-70bb-49d0-aa9e-0a313a680e79 {
        stroke: #ea633e;
        stroke-width: 7.54px;
      }
    </style>
  </defs>
  <title>beach</title>
  <g id="6db493d8-7104-4937-802a-4826ad266540" data-name="Layer 2">
    <g id="2696eccf-bb7d-4539-89a4-b83e7b3b3c22" data-name="Layer 1">
      <g>
        <g>
          <polyline class="b25ecf2a-aceb-4e99-a0a8-1371b6a859e6" points="188.66 136.21 209.25 74.13 229.83 12.05 233.44 1.19"/>
          <path class="b25ecf2a-aceb-4e99-a0a8-1371b6a859e6" d="M178.21,63.84a16.35,16.35,0,1,0-31-10.29A65.4,65.4,0,0,1,271.53,94.08c-.06.21-.13.43-.2.64"/>
          <path class="b25ecf2a-aceb-4e99-a0a8-1371b6a859e6" d="M240.49,83.79a16.35,16.35,0,0,0-31.24-9.66,16.35,16.35,0,1,0-31-10.29c11.37-34.29,34.48-57.47,51.62-51.78s21.77,37.69,10.66,71.73c-.06.21-.13.43-.2.64a16.35,16.35,0,0,1,31.24,9.65"/>
        </g>
        <path class="f02b356c-ebb0-4bff-a4ef-8956a9f2e681" d="M0,162.14c11.63,0,11.63,12,23.25,12s11.63-12,23.25-12,11.63,12,23.25,12,11.63-12,23.25-12,11.63,12,23.25,12,11.63-12,23.25-12,11.63,12,23.26,12,11.63-12,23.26-12,11.63,12,23.26,12,11.63-12,23.26-12,11.63,12,23.26,12,11.63-12,23.26-12"/>
        <path class="b25ecf2a-aceb-4e99-a0a8-1371b6a859e6" d="M0,129.36c27.9,0,27.9,8.72,55.81,8.72s27.91-8.72,55.81-8.72,27.91,8.72,55.81,8.72,27.91-8.72,55.82-8.72,27.91,8.72,55.82,8.72"/>
        <path class="f02b356c-ebb0-4bff-a4ef-8956a9f2e681" d="M0,184.08c11.63,0,11.63,12,23.25,12s11.63-12,23.25-12,11.63,12,23.25,12,11.63-12,23.25-12,11.63,12,23.25,12,11.63-12,23.25-12,11.63,12,23.26,12,11.63-12,23.26-12,11.63,12,23.26,12,11.63-12,23.26-12,11.63,12,23.26,12,11.63-12,23.26-12"/>
        <path class="f02b356c-ebb0-4bff-a4ef-8956a9f2e681" d="M0,206c11.63,0,11.63,12,23.25,12s11.63-12,23.25-12,11.63,12,23.25,12S81.38,206,93,206s11.63,12,23.25,12,11.63-12,23.25-12,11.63,12,23.26,12S174.4,206,186,206s11.63,12,23.26,12,11.63-12,23.26-12,11.63,12,23.26,12,11.63-12,23.26-12"/>
        <path class="f02b356c-ebb0-4bff-a4ef-8956a9f2e681" d="M0,228c11.63,0,11.63,12,23.25,12s11.63-12,23.25-12,11.63,12,23.25,12S81.38,228,93,228s11.63,12,23.25,12,11.63-12,23.25-12,11.63,12,23.26,12S174.4,228,186,228s11.63,12,23.26,12,11.63-12,23.26-12,11.63,12,23.26,12,11.63-12,23.26-12"/>
        <circle class="589b448d-70bb-49d0-aa9e-0a313a680e79" cx="56.87" cy="115.14" r="22.89"/>
      </g>
    </g>
  </g>
</svg>
