<svg xmlns="http://www.w3.org/2000/svg" viewBox="0 0 279.07 243.73">
  <defs>
    <style>
      .b30ea959-e76f-461f-98c2-867b51cf9f7b, .bf2adb1c-5e05-4baa-a70c-0a6c2bec4baf, .ea381fb7-5a81-4adb-9530-0e23d02439d1 {
        fill: none;
        stroke-miterlimit: 10;
      }

      .bf2adb1c-5e05-4baa-a70c-0a6c2bec4baf {
        stroke: #fbb03b;
      }

      .bf2adb1c-5e05-4baa-a70c-0a6c2bec4baf, .ea381fb7-5a81-4adb-9530-0e23d02439d1 {
        stroke-width: 7.54px;
      }

      .ea381fb7-5a81-4adb-9530-0e23d02439d1 {
        stroke: #6364b1;
      }

      .b30ea959-e76f-461f-98c2-867b51cf9f7b {
        stroke: #ea633e;
        stroke-width: 7.54px;
      }
    </style>
  </defs>
  <g id="a0c3b857-29ed-43cc-83d4-4d45810606e6" data-name="Layer 2">
    <g id="bdfc14da-9704-420e-a951-3d4256c3c339" data-name="Layer 1">
      <g>
        <g>
          <polyline class="bf2adb1c-5e05-4baa-a70c-0a6c2bec4baf" points="188.66 136.21 209.25 74.13 229.83 12.05 233.44 1.19"/>
          <path class="bf2adb1c-5e05-4baa-a70c-0a6c2bec4baf" d="M178.21,63.84a16.36,16.36,0,0,0-31.05-10.29A65.4,65.4,0,0,1,271.53,94.08c0,.21-.13.43-.2.64"/>
          <path class="bf2adb1c-5e05-4baa-a70c-0a6c2bec4baf" d="M240.49,83.79a16.35,16.35,0,0,0-31.24-9.66,16.35,16.35,0,1,0-31-10.29c11.37-34.29,34.47-57.47,51.62-51.79s21.77,37.69,10.66,71.74c-.06.21-.13.43-.2.64a16.35,16.35,0,0,1,31.24,9.65"/>
        </g>
        <path class="ea381fb7-5a81-4adb-9530-0e23d02439d1" d="M0,162.14c11.63,0,11.63,12,23.25,12s11.63-12,23.25-12,11.63,12,23.26,12,11.62-12,23.25-12,11.63,12,23.25,12,11.63-12,23.26-12,11.63,12,23.25,12,11.63-12,23.26-12,11.63,12,23.26,12,11.63-12,23.26-12,11.63,12,23.26,12,11.63-12,23.26-12"/>
        <path class="bf2adb1c-5e05-4baa-a70c-0a6c2bec4baf" d="M0,129.36c27.9,0,27.9,8.72,55.81,8.72s27.91-8.72,55.81-8.72,27.91,8.72,55.81,8.72,27.91-8.72,55.82-8.72,27.91,8.72,55.82,8.72"/>
        <path class="ea381fb7-5a81-4adb-9530-0e23d02439d1" d="M0,184.08c11.63,0,11.63,12,23.25,12s11.63-12,23.25-12,11.63,12,23.26,12,11.62-12,23.25-12,11.63,12,23.25,12,11.63-12,23.26-12,11.63,12,23.25,12,11.63-12,23.26-12,11.63,12,23.26,12,11.63-12,23.26-12,11.63,12,23.26,12,11.63-12,23.26-12"/>
        <path class="ea381fb7-5a81-4adb-9530-0e23d02439d1" d="M0,206c11.63,0,11.63,12,23.25,12s11.63-12,23.25-12,11.63,12,23.26,12S81.38,206,93,206s11.63,12,23.25,12,11.63-12,23.26-12,11.63,12,23.25,12S174.4,206,186,206s11.63,12,23.26,12,11.63-12,23.26-12,11.63,12,23.26,12,11.63-12,23.26-12"/>
        <path class="ea381fb7-5a81-4adb-9530-0e23d02439d1" d="M0,228c11.63,0,11.63,12,23.25,12s11.63-12,23.25-12,11.63,12,23.26,12S81.38,228,93,228s11.63,12,23.25,12,11.63-12,23.26-12,11.63,12,23.25,12S174.4,228,186,228s11.63,12,23.26,12,11.63-12,23.26-12,11.63,12,23.26,12,11.63-12,23.26-12"/>
        <circle class="b30ea959-e76f-461f-98c2-867b51cf9f7b" cx="56.87" cy="115.14" r="22.89"/>
      </g>
    </g>
  </g>
</svg>
