<svg xmlns="http://www.w3.org/2000/svg" viewBox="0 0 934 96"><g fill="#AA1E23"><path d="M60.54 1.18c0-.18.15-.18.3-.18-2 4.85-6.35 9-10.7 10.4v46.24l6.67-7.27c-1.7 10.2-9 20.95-18 24.07-10.9 3.63-23.6 1.9-31.5-7.27-7.2-7.63-7.7-20.8-4.7-30.84 2.4-8.3 8.6-16.45 15.7-20.95-7.6 10.22-11.2 26.15-5.6 38.8C17.3 63 25.9 65.96 34.9 64.74c4.8-.7 9.32-2.42 13.36-5.7v-46.6c-13.67 1.73-26.58-2.26-40.4-1.22-2.8.18-5.46 1.22-7.32 3.8.3-4.67 2.34-9.17 6.07-12.1C11.8-.9 18.9.14 25.3.3c11.66.7 23.78 4.34 35.28.88m225.2 6.84l2.47-.7c-.15 3.64-2.48 7.1-5.43 8.5-3.9 1.9-7.18-1.04-10.13-2.77-1.3-.18-2.2.34-3 1.2l-1.1-1.38 10.3-10.74c1 2.78 3.5 6.06 6.8 5.9m554.4 0l2.5-.7c-.2 3.63-2.5 7.1-5.5 8.5-3.9 1.9-7.2-1.05-10.1-2.78-1.3-.18-2.2.34-3 1.2l-1.1-1.38 10.3-10.74c1.1 2.78 3.6 6.06 6.8 5.9M306.8 9.5v53.16c2.5.52 4.57 2.08 6.1 4.34l4.2-2.26.8 1.56c-4.2 2.77-9 5.2-12.8 9.18-2.9-3.3-6-5.9-10.2-5.02l-3.4.86c-.2-2.77 1.4-5.88 4.07-7.27l.74-.34V10.9c-.3-2.26-1.3-4.16-2.6-5.9 6.2.7 11.7-1.38 16.5-4.85-1.4 2.77-2.8 5.9-3.1 9.36m-96 56.3l-2.6 1.1c-3.9-4.3-8.5-6.5-13.5-7V13.2c5-.34 12.2-2.25 15.1 3.64l1 3.3v45.74zm12-8.8V27c0-6.77-.4-13.35-3.2-18.9-2.6-4.5-7-7.1-11.5-7.8-14.4-1.2-28.7 5.03-42.6 0-.1 2.78.5 5.38 1.4 7.8 5.5 9.36 17.4 6.07 25.8 5.37V59.7c-11.3-.32-21.1 6.08-27.5 16.65 9.2-6.58 23.7-6.58 32.8-.17 7.8-7.1 17.3-10.4 27.2-11.8-1.1-2.23-2-4.66-2.3-7.43"/><path d="M37.52 48.63c-1.25 8.32-9.33 9.7-14.92 11.6 1.7-1.73 2.48-3.98 2.8-6.4.15-9.53 0-19.05 0-28.4l-4.5 1.9v-2.25c5.74-2.08 11.18-5.03 16.62-8.3v31.85zm152.02-31.7c-1.4 2.26-1.86 5.2-1.7 8.3l-.33 23.58c-1.7 8-9.4 10.8-15.5 12.3 5-3.1 3.1-10.2 3.6-15.9-2.9.2-7.3-1.2-8.4 2.8l-.3 2.3c-1.4-4.1-2-10.5.8-14.2 2-2.2 4.8-2.7 7.8-2.7.2-5.2 2.5-10 6.7-12.8 2.4-1.5 4.9-2.7 7.5-3.4M290 28.4c-1.1 2.78-3.42 5.2-5.9 6.26V58.9c.15 1.9.6 3.64 2.17 4.85 1.26 1.05 2.8 1.57 4.5 1.57v1.4c-3.86 2.06-7.44 5.2-10.86 8.47-3.5-1.9-6-5.9-6.3-10.1l-.1-30c-2.5-.9-4.6-2.1-6.5-4.2 3.8-1.9 7.3-5 10.5-8.7 3.7 3.7 7.6 6.3 12.7 6.1m74.1-.1c-1.1 2.7-3.4 5.2-5.9 6.2V62c-.1 4.66 4.2 7.26 3.4 12.1 0 6.6-4.2 12.5-9.3 15.6-6.2 4-15.5 4.68-22.4 1.74-3.2-1.4-7.7-4.5-10.8-.7l-.4.5c.3-4.64 2-10 6.5-12.1 2.7-.86 5.9-.7 8.1 1.4 4.1 3.47 6.7 11.1 12.6 9.53 2.5-.5 5-2.25 5.9-4.85 2.3-5.4-.9-10.1-3.6-14.08-.7-3.1-.6-6.57-.7-10L328.7 75c-.94-1.9-2.96-4.15-5-4.67-2.2-.54-4.36 0-6.4.7 0-3.5 2.35-6.6 5-8l-.2-24.8c0-2.03-1.07-4.1-2.8-5.15-1.23-.5-2.62-.7-4.03-.7V31c3.1-1.9 6.06-4.8 8.55-8.1 3.1.5 6.7 2.44 8.1 6.07l.9 4.5.17 28.22c2 .5 4 2.4 4.9 4.5l9.6-7.1v-24c-2.5-.7-4.7-2.1-6.6-4.2 3.6-1.9 7.1-4.9 10.3-8.7 3.7 3.6 7.8 6.2 12.9 6m-244.6 2.1l3.7-1.1c2.5 5 5 10.2 8.1 15.1l-11.8 7.2v-21zM133 67.5c-4.2-2.8-8.56-4.83-13.5-5.7v-7.3l23.8-14.7c-5.6-4.83-9.06-11.24-11.55-17.5-7 6.6-16.6 8.16-25.8 6.26 1.7 1.9 2.5 4.15 2.8 6.58l.16 27.2c-2.5 1.02-4.9 3.97-6 6.57 8.9-.8 16.2 3 23.5 6.6l14.3-10.7c-.3-.7-.5-1.4-1.1-1.9-2 1.8-4.3 3.1-6.5 4.7"/><path d="M252.5 63.18c-2.03 1.56-4.2 3.64-6.53 1.9-3.74-1.2-7.94-4.33-8.7-9-.63-3.63 0-7.27 2.48-9.87 3.1-3.4 9-3.9 12.75-1v18zm12.74.35c-1.56-1.56-2.17-3.82-2.5-6.07v-23.2c2.8-1.56 4.37-4.68 5.14-7.8-1.56 1.04-3.42 1.74-5.6 1.38-2.33-.7-4.2-3.46-5.74-5.53-3.1 3.5-6.38 6.6-10.73 6.8-3.5.5-5.5-3.8-6.8-6.7-2.2 4.2-5.9 6.3-9.3 7.6 2.7 2.3 5.6 3.8 8.7 4.9 3.8 1.1 6.9-.7 9.2-3.8 1 2.3 3.1 4.2 5 5.2v7c-1.2-.7-2.6-1.2-4-1.5-7.6-.8-15.1 2.1-19.1 9.7-2.8 4.9-2.9 12.8-.3 17.9 2.5 4.2 6.4 5.7 10.4 6.4l13.2-10.2L254 69c1.4 3.3 4.5 5.9 7.92 5.9l8.84-8.87c-2.04-.34-3.9-.87-5.45-2.42m-167-35.7c1.1 0 2-.7 3.1-1-.1 3.1-1.7 6.2-4.3 7.7-.4 7.9-.3 16.4-.1 24.5 0 2.1 1.1 4.1 3 5.2 1.1.5 2.5.7 3.9.7v1.4c-3.1 2.1-6.3 5-8.4 8.4-3.1-.8-6.4-2.5-7.8-6.1L86.3 64l-.14-27.9c-2-.52-3.68-2.74-4.76-4.62l-9.5 7.02v23.78c2.3 1.03 4.6 1.88 6.43 4.1-3.7 1.9-7.22 5.14-10.3 8.9-3.52-3.93-7.82-6.33-12.73-6.33 1.07-2.56 3.37-5.14 5.83-6.16v-24c-.16-1.8.37-26-.34-28.7-.7-2.7-2.1-5.2-2.1-5.2C62.2 5 70.9 3.7 74.2.3c-1.27 2.87-3.13 6.56-2.82 11l.5 24.97L90.3 22.73c1.7 2.9 4.63 5.3 8 5.14M682.98 11v53.17c2.33.52 4.34 2.08 5.9 4.34l4.2-2.2.93 1.6c-4.3 2.8-9 5.2-13 9.2-2.8-3.3-6-5.9-10.2-5l-3.4.9c-.1-2.7 1.6-5.9 4-7.3l1-.3-.1-52.8c-.1-2.2-1.2-4.1-2.6-5.8 6.2.7 11.7-1.4 16.5-4.8-1.4 2.8-2.8 5.9-2.9 9.4M436.6 64.9c-4.37-3.3-8.7-6.4-13.87-7.8V14.3l4.9-3.8c1.6 3.8 5.2 6.24 8.9 6.07V64.9zm-15.88 28c-1.58-.34-3.1-1.37-3.9-3.1-1.7-3.3-1.1-7.63-1.25-11.6V19.3l5.13-3.8v77.4zM448.2 16l6.52-6.4c-6.2-1.04-12.1-3.46-16.3-9.18l-16 11.6v-5h-1.7v6.4l-5.4 3.83c-.15-2.6-.6-5.04-1.4-7.28-1.4-3.8-4.8-7.46-8.4-7.97-5.9-1.04-11.2 1.2-14.6 6.58-2 3.12-2.33 8.32-.77 11.6.15-2.42.77-4.5 2.48-6.23 1.7-1.9 4.98-2.08 7.16-1.04 5.7 3.7 3.1 12 3.7 18.2h-2.7c-3.3.2-6.5 2.1-7.8 5.6-1.3 4.2-.2 8.5 1.5 11.8l.6-2.1c1.5-3.3 4.8-3.8 8.2-3.4v14.7c-2.2 0-4.1.9-5.9 1.9-5.8 3.7-7.8 10.4-7.9 17.4 3.4-4.8 8.2-7.2 13.8-7.2.1 9.6.9 19.8-5.3 26.4 5 .5 9.2-1.9 12.3-6.2 3.2 4 7.1 6.1 11.9 5.9v-23c2.8.9 5.4 2.5 7.7 4 4.5-8.1 12-13.3 20.2-13.3-1.1-2.1-1.5-4.3-2-6.7V16zm79.23 13.02c1.1 0 2.03-.7 3.1-1.04-.13 3.1-1.7 6.24-4.33 7.8-.5 7.96-.4 16.6-.2 24.75 0 2.1 1.1 4.16 2.92 5.2 1.07.52 2.47.7 3.86.7v1.38c-3.1 2.1-6.37 5.1-8.54 8.5-3.1-.8-6.55-2.6-7.94-6.2l-1.1-4.5-.15-28.2c-2.03-.5-3.73-2.7-4.8-4.6l-9.66 7.1v24c2.3 1.1 4.6 1.9 6.5 4.2-3.7 1.9-7.3 5.2-10.4 9-3.6-4-7.9-6.4-12.9-6.4 1.1-2.6 3.4-5.2 5.9-6.2V40.1c-.2-1.74-.6-3.3-1.7-4.68-1.4-1.2-3.3-1.56-4.8-1.73v-1.4c3.7-2.1 7.3-4.7 10.5-8.2 3.7 1.2 6.5 5.9 6.8 10.4v2.9l18.6-13.7c1.7 2.9 4.6 5.4 8 5.2m49.8.1c1.2 0 2.2-.7 3.2-1.1-.3 3.1-1.9 6.2-4.5 7.8-.3 7.9-.3 16.6-.2 24.7.1 2.1 1.1 4.2 2.9 5.2 1.1.6 2.5.7 4 .7v1.4c-3.2 2.1-6.3 5.1-8.7 8.5-3.1-.8-6.5-2.6-7.9-6.2l-1.1-4.5V37.4c-2.2-.53-3.9-2.77-4.9-4.68l-9.6 7.1v24c2.3 1.05 4.7 1.9 6.5 4.17-3.7 1.9-7.3 5.2-10.4 9-3.6-4-7.8-6.5-12.7-6.5.9-2.6 3.4-5.2 5.7-6.3V40.1c0-1.73-.6-3.3-1.7-4.68-1.4-1.2-3.3-1.56-4.8-1.73v-1.4c3.7-2.1 7.3-4.7 10.6-8.2 3.7 1.2 6.5 5.9 6.8 10.4v2.9L569 23.7c1.7 2.9 4.5 5.4 7.98 5.2"/><path d="M669.15 29.9c-1.08 2.75-3.57 5.18-5.9 6.22v27.53c-.16 4.68 4.03 7.27 3.4 12.12-.14 6.6-4.34 12.5-9.47 15.6-6.06 4-15.4 4.68-22.22 1.73-3.27-1.38-7.94-4.5-11.04-.7l-.47.53c.3-4.67 2.02-10.04 6.53-12.12 2.64-.8 5.9-.7 8.07 1.4 4.05 3.5 6.7 11.1 12.76 9.6 2.4-.5 4.9-2.2 5.9-4.8 2.2-5.3-.9-10-3.5-14-.8-3.1-.8-6.6-.8-10l-18.8 13.8c-1.1-1.9-2.9-4.1-5-4.7-2.3-.5-4.5 0-6.4.7-.1-3.4 2.2-6.6 5-7.9l-.1-24.8c-.1-2.1-1-4.1-2.9-5.2-1.3-.5-2.7-.7-3.9-.7v-1.4c3.1-1.9 6-4.8 8.4-8.1 3.2.5 6.7 2.5 8.1 6.1l1.1 4.5.2 28.3c2 .6 3.9 2.5 5 4.5l9.5-7.1V36.7c-2.5-.7-4.6-2.06-6.5-4.14 3.7-1.93 7.3-4.87 10.4-8.68 3.6 3.64 7.8 6.24 12.9 6.07m34 0l1.1 4.3.4 25.48c0 4.16 3.4 7.6 6.7 8.83 2.4 2.6 5.2-.17 7.7-.7v-31.2c-2.5-.7-4.6-2.05-6.5-4.14 3.8-1.9 7.3-4.9 10.4-8.7 3.6 3.6 7.8 6.2 12.9 6-1.1 2.75-3.5 5.18-5.9 6.2v25c.2 2.6.8 5.2 2.7 7.1-10.3.18-19.8 2.6-27.7 8.84-3.7-.87-7.4-2.44-9.4-6.43-1.6-3.8-1.9-8.1-1.6-12.6l-.3-19.2c-.3-1.9-.93-3.63-2.5-4.5-1.4-.7-2.8-1.04-4.2-1.04V32c3.1-1.9 6.08-4.86 8.4-8.15 3.3.5 6.7 2.26 8.1 6.07m115.9-.9c1.1 0 2-.7 3.1-1.03-.12 3.1-1.7 6.2-4.5 7.8-.3 7.9-.12 16.6 0 24.7 0 2.1.97 4.1 2.8 5.2 1.28.5 2.68.7 4.08.7v1.4c-3.1 2.1-6.4 5-8.53 8.5-3.3-.9-6.7-2.6-8.1-6.2l-1-4.5-.1-28.3c-2.2-.5-3.8-2.8-4.9-4.7l-9.66 7.1v24.1c2.15 1 4.5 1.9 6.5 4.1-3.9 1.9-7.5 5.2-10.4 9-3.6-4-7.96-6.4-12.9-6.4 1.05-2.6 3.4-5.2 5.9-6.2V40.1c-.2-1.74-.65-3.3-1.7-4.68-1.6-1.2-3.3-1.56-5-1.73v-1.4c3.7-2.1 7.45-4.7 10.7-8.2 3.7 1.2 6.5 5.9 6.8 10.4v2.9L811 23.8c1.7 2.95 4.65 5.37 8.08 5.2"/><path d="M844.86 29.9c-1.1 2.75-3.58 5.18-5.9 6.22v24.26c.15 1.9.6 3.63 2 4.84 1.4 1.03 2.96 1.55 4.68 1.55v1.4c-4.05 2.07-7.62 5.18-11.04 8.48-3.42-1.9-6.07-5.9-6.22-10.05l-.3-29.97c-2.34-.85-4.52-2.06-6.4-4.14 3.6-2 7.16-5.1 10.43-8.7 3.6 3.6 7.7 6.2 12.8 6m83.7-.9c1.1 0 2-.7 3.1-1.1-.1 3.1-1.7 6.2-4.3 7.8-.5 7.9-.3 16.6-.1 24.7 0 2.1 1.1 4.1 3 5.2 1.1.5 2.5.7 3.9.7v1.4c-3.1 2.1-6.3 5-8.5 8.5-3.1-.9-6.5-2.6-7.9-6.3l-1.1-4.5-.1-28.3c-2-.6-3.7-2.8-4.8-4.7l-9.6 7.1v24.1c2.3 1 4.7 1.9 6.5 4.1-3.7 1.9-7.4 5.1-10.4 9-3.6-4-7.9-6.5-12.9-6.5 1.1-2.6 3.4-5.2 5.9-6.3V40c-.1-1.75-.6-3.3-1.7-4.7-1.4-1.2-3.3-1.55-4.8-1.72v-1.4c3.7-2.1 7.3-4.7 10.6-8.2 3.7 1.2 6.5 5.9 6.9 10.4v2.9l18.7-13.7c1.7 2.9 4.7 5.4 8.1 5.2m-464.6 3l3.8-1.1c2.5 5 5 10.2 7.9 15L464.3 53V31.9zm13 37.22c-4.2-2.77-8.7-4.84-13.5-5.7V56l23.7-14.7c-5.4-4.85-8.8-11.26-11.3-17.5-7 6.6-16.8 8.15-25.9 6.24 1.7 1.9 2.5 4.15 2.8 6.58l.3 27.2c-2.6 1.03-4.9 3.97-6 6.57 8.7-.9 16 2.9 23.3 6.6L485 66.2c-.3-.7-.6-1.38-1.08-1.9-2.18 1.73-4.35 3.12-6.52 4.67m281.23-4.3c-2.18 1.54-4.2 3.63-6.54 1.9-3.8-1.2-8.1-4.34-8.7-9-.7-3.66 0-7.3 2.4-9.88 3.1-3.5 9-4 12.7-1.1v18zm12.74.34c-1.7-1.5-2.33-3.8-2.5-6V35.8c2.66-1.57 4.37-4.7 5.15-7.8-1.72 1.03-3.57 1.7-5.6 1.37-2.5-.7-4.35-3.46-5.76-5.54-3.1 3.47-6.52 6.6-10.72 6.76-3.58.5-5.6-3.8-6.84-6.8-2.18 4.1-5.9 6.2-9.33 7.6 2.65 2.2 5.6 3.8 8.7 4.8 3.74 1 6.85-.7 9.18-3.9.93 2.2 2.95 4.1 4.98 5.2v6.9c-1.25-.7-2.65-1.2-4.05-1.6-7.6-.9-15.08 2.1-19.13 9.7-2.8 4.8-2.94 12.8-.3 17.8 2.34 4.1 6.37 5.7 10.42 6.4l13.2-10.2 1.25 3.6c1.4 3.3 4.52 5.9 7.93 5.9l8.87-8.8c-2.03-.4-4.05-.9-5.45-2.4"/><path d="M869.38 64.7c-2.03 1.55-4.2 3.64-6.53 1.9-3.73-1.2-7.93-4.33-8.55-9-.78-3.65-.16-7.28 2.33-9.87 3.12-3.47 9-3.98 12.75-1.05v18zm12.75.35c-1.56-1.56-2.18-3.8-2.5-6.07v-23.2c2.8-1.56 4.36-4.68 5.14-7.8-1.56 1.04-3.42 1.72-5.6 1.38-2.33-.7-4.2-3.46-5.74-5.54-3.12 3.46-6.38 6.6-10.74 6.75-3.6.53-5.6-3.8-6.9-6.75-2.2 4.16-5.9 6.24-9.4 7.62 2.6 2.25 5.6 3.82 8.7 4.85 3.7 1 6.8-.7 9.2-3.9.9 2.2 3.1 4.1 4.9 5.2v6.9c-1.3-.7-2.7-1.2-4.1-1.6-8-1.1-15.7 2.4-19.5 10.5-2.7 4.7-2.5 12.3 0 17 2.5 4.1 6.4 5.7 10.4 6.4l13.2-10.2 1.2 3.6c1.4 3.3 4.5 5.9 7.9 5.9l8.8-8.9c-2-.4-3.9-.9-5.4-2.5m-272.6 3.5l-2.4.9c-1.7-3.5-4.9-6.3-8.4-6.8-4.8-.5-8.4 2.1-12.2 3.8 5-5.9 10.9-11.6 16.9-16.1h6.1v18.2zm-14.9-19.9V31.9l2.8-.53c2.7 3.3 5.9 5.7 10.1 4.84 3.5-.7 6.4-2.9 9-5.5-3.9 6.4-9.2 12.3-14.6 17.7-2.4.3-4.9.2-7.3.2m27.3-3.3L608 45c5.15-5.7 9.97-11.6 12.46-18.57.76-.88-.17-1.58-.8-1.9-.77 1.54-1.86 3.27-3.42 3.8-4.2 1.03-7.47-1.74-10.26-4.7-6.38 5.7-14.6 8.66-23.33 6.75 1.24 1.58 1.87 3.5 2.2 5.4-.16 6.06 1.4 13.3-2.2 17.8l12.76.2c-6 5.9-12.3 12.64-16 20.1-1.1 1.2.8 1.2 1.3 1.7 1-1.54 2.7-3.62 4.4-4.3 5.1-1.4 9 2.6 13.1 5.53 6.4-6.4 15.1-8.6 23.8-6.4-1.1-1.9-2-4-2.2-6.4.3-6.2-1.7-14 2.2-18.8"/></g></svg>