<svg xmlns="http://www.w3.org/2000/svg" viewBox="0 0 174.82 54.24">
  <defs>
    <style>
      .d25502b4-150a-4060-84ad-79b32d0e4748 {
        fill: #f3af3d;
      }
    </style>
  </defs>
  <title>highlight_1</title>
  <g id="a2c890b7-df7d-48f1-b606-b5981c7cb71b" data-name="Layer 2">
    <g id="9b06e8c8-887a-4559-828d-195ed059221d" data-name="Layer 1">
      <path class="d25502b4-150a-4060-84ad-79b32d0e4748" d="M1.19,21c1.9-4.94,5.37-9.66,10-10.74C34.7,4.83,58.6-.78,82.89.09,94.46.5,106,2.51,117.58,3.22a154.1,154.1,0,0,0,16.56.12q4.13-.19,8.24-.61,2.35-.24,4.69-.55c1.09-.15,6.59-1,1.21-.13,5.08-.86,9.32-.92,14.21,2.12A27.11,27.11,0,0,1,173.18,18c1.67,5.36,2.46,11.65.46,16.85-1.84,4.79-5.4,10-10,10.74C151.17,47.67,138.74,49,126,48.4c-11.55-.53-23.08-2.53-34.64-3.15s-22.82.43-34.12,2l-.22,0-.5.09-4.14.75q-4.14.78-8.26,1.66c-5.89,1.24-11.76,2.6-17.63,4C16.84,56,5.46,50.07,1.65,37.83,0,32.47-.82,26.18,1.19,21Z"/>
    </g>
  </g>
</svg>
