<svg xmlns="http://www.w3.org/2000/svg" viewBox="0 0 205.94 48.51">
  <defs>
    <style>
      .\34 5b66122-2c08-4154-bdb9-b9a869bbfa6c {
        fill: #50b0a0;
      }
    </style>
  </defs>
  <title>highlight_2</title>
  <g id="d2a5655e-2147-41d2-85d3-1964737d4ab0" data-name="Layer 2">
    <g id="bc5e0285-bac3-4b1e-b1c3-6ef3b6a2ea24" data-name="Layer 1">
      <path class="45b66122-2c08-4154-bdb9-b9a869bbfa6c" d="M203.48,12.6C197.31,3,187,2.94,178.11,8.06c3.76-2.16-.47-.07-1.43.32l-.6.25a8.41,8.41,0,0,0-1,.05c-3.29.31-6.54.63-9.85.71-3.55.08-7.1.09-10.65.09l-5.53,0H147.7l-1.29-.06c-14.48-.6-27.88-3.88-42-7.07C90-.92,75.46-.36,60.88,1.5c-6.83.87-13.65,1.88-20.52,2.28-1.7.1-3.39.13-5.09.18l-.77,0-.42-.08C30.4,3.37,26.84,3.1,23.2,2.23,13.47-.11,2.42,8.89.47,18.64c-2.12,10.65,3,19.9,13.28,22.36,14.95,3.58,30.39,1.67,45.41-.27a159.45,159.45,0,0,1,21.11-1.82c-.23,0,3.12.22,3.29.24,1.78.18,3.54.43,5.31.73,3.82.64,7.59,1.55,11.35,2.49a204.53,204.53,0,0,0,47.91,6.08c17,.22,33,.32,48.36-8.48C204.82,35.17,208.91,21,203.48,12.6Z"/>
    </g>
  </g>
</svg>
