<svg xmlns="http://www.w3.org/2000/svg" viewBox="0 0 129.99 44.32">
  <defs>
    <style>
      .\33 9226c7b-8e85-480d-9f2b-e5dd0cecbbfe {
        fill: #6265ad;
      }
    </style>
  </defs>
  <title>highlight_3</title>
  <g id="8b4ff166-5fe0-4960-8487-bef3d64f1a92" data-name="Layer 2">
    <g id="2f32ec46-401e-4b29-80d3-d093a917cae4" data-name="Layer 1">
      <path class="39226c7b-8e85-480d-9f2b-e5dd0cecbbfe" d="M129.44,12.1C126.72,1.37,119-1.75,111,.88c-.53.18-1.13.38-1.23.42-.7.2-1.4.38-2.1.56q-2.87.74-5.77,1.31C97.83,4,93.7,4.58,89.56,5a240.42,240.42,0,0,1-24.3,1c-16.72,0-33.45-.29-50.17-.45C7.1,5.51-.34,17.11,0,26.73c.4,11.2,6.69,17.05,15.07,17.14,17.21.17,34.43.51,51.64.44,17.63-.07,34.84-1.78,51.95-7.41C126.27,34.4,131.81,21.47,129.44,12.1Z"/>
    </g>
  </g>
</svg>
