<svg xmlns="http://www.w3.org/2000/svg" viewBox="0 0 161.72 117.43">
  <defs>
    <style>
      .cc208388-241c-406c-b61b-89b6fb23f2d9 {
        fill: #6265ad;
      }

      .\31 a601858-294a-47cf-a696-9e2955284fca, .cc208388-241c-406c-b61b-89b6fb23f2d9, .df63bcd6-eb8c-4c15-b241-d2668d14fcef {
        stroke: #fff;
        stroke-miterlimit: 10;
      }

      .\30 d77377a-c14c-4aa6-9724-28280450c69b, .\31 a601858-294a-47cf-a696-9e2955284fca, .cc208388-241c-406c-b61b-89b6fb23f2d9, .df63bcd6-eb8c-4c15-b241-d2668d14fcef {
        stroke-linecap: round;
        stroke-width: 4.5px;
      }

      .df63bcd6-eb8c-4c15-b241-d2668d14fcef {
        fill: #68b0a1;
      }

      .\30 d77377a-c14c-4aa6-9724-28280450c69b {
        fill: none;
        stroke: #db6b49;
        stroke-linejoin: round;
      }

      .\31 a601858-294a-47cf-a696-9e2955284fca {
        fill: #f3af3d;
      }
    </style>
  </defs>
  <title>icon_2</title>
  <g id="0342a45f-610f-48cc-b035-c5cdc2fef796" data-name="Layer 2">
    <g id="88a46f53-461e-4781-8dc5-9da607cb899d" data-name="Layer 1">
      <g>
        <path class="cc208388-241c-406c-b61b-89b6fb23f2d9" d="M3.91,36,77.26,3a8.86,8.86,0,0,1,7.2,0l73.35,33a2.59,2.59,0,0,1,0,4.84l-73.35,33a8.86,8.86,0,0,1-7.2,0l-73.35-33A2.59,2.59,0,0,1,3.91,36Z"/>
        <path class="df63bcd6-eb8c-4c15-b241-d2668d14fcef" d="M72.24,71.71c6.55,2.8,9.82,2.86,16.38,0l46.21-20.62V80a10.39,10.39,0,0,1-2,6.27c-15.49,15.49-32.61,23.6-52.69,23.6-21.75,0-37.46-7.76-51.46-23.6a8.89,8.89,0,0,1-1.81-6V51.37Z"/>
        <polyline class="0d77377a-c14c-4aa6-9724-28280450c69b" points="141.21 102.37 141.21 46.91 80.54 35.9"/>
        <rect class="1a601858-294a-47cf-a696-9e2955284fca" x="136.11" y="66.13" width="10.6" height="49.05"/>
      </g>
    </g>
  </g>
</svg>
