<svg xmlns="http://www.w3.org/2000/svg" viewBox="0 0 132 132">
  <defs>
    <style>
      .\32 6a41f77-f9aa-4a78-a4b7-bb95c1451840 {
        fill: #f3af3d;
      }

      .\32 6a41f77-f9aa-4a78-a4b7-bb95c1451840, .\34 9baf520-a393-4c60-b4ad-00c7c6ce0f59 {
        stroke: #f3af3d;
        stroke-linecap: round;
        stroke-linejoin: round;
        stroke-width: 4.5px;
      }

      .\34 9baf520-a393-4c60-b4ad-00c7c6ce0f59 {
        fill: none;
      }
    </style>
  </defs>
  <title>icon_3</title>
  <g id="017d3dd7-5d03-4f0b-896b-9b0628f0b051" data-name="Layer 2">
    <g id="6826f502-115c-44b1-ad24-c75a2642eb0b" data-name="Layer 1">
      <g>
        <path class="26a41f77-f9aa-4a78-a4b7-bb95c1451840" d="M91.59,66.14A25.77,25.77,0,1,1,65.82,40.37h0A25.77,25.77,0,0,1,91.59,66.14Z"/>
        <line class="49baf520-a393-4c60-b4ad-00c7c6ce0f59" x1="104.16" y1="66" x2="129.75" y2="66"/>
        <line class="49baf520-a393-4c60-b4ad-00c7c6ce0f59" x1="2.25" y1="66" x2="27.84" y2="66"/>
        <line class="49baf520-a393-4c60-b4ad-00c7c6ce0f59" x1="99.06" y1="46.92" x2="121.21" y2="34.13"/>
        <line class="49baf520-a393-4c60-b4ad-00c7c6ce0f59" x1="10.79" y1="97.88" x2="32.95" y2="85.09"/>
        <line class="49baf520-a393-4c60-b4ad-00c7c6ce0f59" x1="85.09" y1="32.95" x2="97.88" y2="10.79"/>
        <line class="49baf520-a393-4c60-b4ad-00c7c6ce0f59" x1="34.13" y1="121.21" x2="46.92" y2="99.05"/>
        <g>
          <line class="49baf520-a393-4c60-b4ad-00c7c6ce0f59" x1="66" y1="27.84" x2="66" y2="2.25"/>
          <line class="49baf520-a393-4c60-b4ad-00c7c6ce0f59" x1="66" y1="129.75" x2="66" y2="104.16"/>
        </g>
        <line class="49baf520-a393-4c60-b4ad-00c7c6ce0f59" x1="46.92" y1="32.95" x2="34.13" y2="10.79"/>
        <line class="49baf520-a393-4c60-b4ad-00c7c6ce0f59" x1="97.88" y1="121.21" x2="85.09" y2="99.05"/>
        <line class="49baf520-a393-4c60-b4ad-00c7c6ce0f59" x1="32.95" y1="46.92" x2="10.79" y2="34.13"/>
        <line class="49baf520-a393-4c60-b4ad-00c7c6ce0f59" x1="121.21" y1="97.88" x2="99.06" y2="85.09"/>
      </g>
    </g>
  </g>
</svg>
