<svg xmlns="http://www.w3.org/2000/svg" xmlns:xlink="http://www.w3.org/1999/xlink" viewBox="0 0 275.76 275.77">
  <defs>
    <style>
      .dce50f1d-a6ef-4105-a5d8-86f3c423762a {
        fill: none;
      }

      .\34 511afa5-d10b-46c6-a1ec-f8d760b66524 {
        fill: #fff;
      }

      .dbf7b940-4531-4f29-a0c4-ea0b1b2201d1 {
        clip-path: url(#ed4437e9-1511-4193-b330-ff803c7587ff);
      }

      .ad7e33f1-4d26-4678-818b-ddf5a584de03 {
        clip-path: url(#4553165e-7666-4abb-8213-919a9ddbfac5);
      }

      .\39 9fe4371-72d5-4d66-a9c2-2e035f4e7496 {
        fill: #6364b1;
      }

      .\30 4abcfd4-91f7-4b44-9954-c9af8c66c87c {
        fill: #ea633e;
      }

      .a6b6d968-a998-45f4-90a4-cd0229469e86 {
        fill: #4fb0a0;
      }

      .\31 acbdc1e-5d89-4981-b25d-0f55a2c34441 {
        fill: #fdab00;
      }
    </style>
    <clipPath id="ed4437e9-1511-4193-b330-ff803c7587ff" transform="translate(-12.42 -12.42)">
      <rect class="dce50f1d-a6ef-4105-a5d8-86f3c423762a" x="36.4" y="36.39" width="227.8" height="227.81" transform="translate(-48.03 226.76) rotate(-66.08)"/>
    </clipPath>
    <clipPath id="4553165e-7666-4abb-8213-919a9ddbfac5" transform="translate(-12.42 -12.42)">
      <rect class="dce50f1d-a6ef-4105-a5d8-86f3c423762a" x="36.51" y="36.51" width="227.58" height="227.58" transform="translate(-48.03 226.76) rotate(-66.08)"/>
    </clipPath>
  </defs>
  <title>whywave</title>
  <g id="03ca0ff1-ba33-42e0-a5be-13003037cd48" data-name="Layer 2">
    <g id="3d5ea82b-10bd-420f-ad82-85d662e5f116" data-name="Layer 1">
      <path class="4511afa5-d10b-46c6-a1ec-f8d760b66524" d="M75.28,259.66c26.51,26.78,47.55,8.61,83.76,1.78,45.37-8.56,77.5,4.11,100.7-31,20.89-31.59,15.9-62.82,5.51-116-7.66-39.18-18.09-57.15-63-80.92-32-16.91-63.12-11.64-96.68,6.79C71.25,59.21,38.72,79.7,33.39,127.09,24.05,210.12,32.58,216.53,75.28,259.66Z" transform="translate(-12.42 -12.42)"/>
      <g id="47f55601-058f-47af-9c82-649a4fb68169" data-name="Artwork 2">
        <g class="dbf7b940-4531-4f29-a0c4-ea0b1b2201d1">
          <g class="dbf7b940-4531-4f29-a0c4-ea0b1b2201d1">
            <g class="ad7e33f1-4d26-4678-818b-ddf5a584de03">
              <g class="ad7e33f1-4d26-4678-818b-ddf5a584de03">
                <path class="99fe4371-72d5-4d66-a9c2-2e035f4e7496" d="M133.25,42a86.31,86.31,0,0,0,29,20.85L153.18,83.3a86.68,86.68,0,0,0-53.66-5.5,136.43,136.43,0,0,0,42.83,29.92l-9.06,20.42a37.93,37.93,0,0,0-50,19.28l-20.42-9.06a60.08,60.08,0,0,1,34.58-32.2A156.7,156.7,0,0,1,71.21,79L62.54,67.5,75.81,62a108.7,108.7,0,0,1,37.86-8.39,108.77,108.77,0,0,1-19.2-33.69l21.06-7.45A86.59,86.59,0,0,0,133.25,42" transform="translate(-12.42 -12.42)"/>
                <path class="04abcfd4-91f7-4b44-9954-c9af8c66c87c" d="M238.06,233.09l-13.28,5.55A108.77,108.77,0,0,1,186.92,247a108.83,108.83,0,0,1,19.2,33.69l-21.06,7.45a86.6,86.6,0,0,0-46.7-50.46l9.06-20.42a86.69,86.69,0,0,0,53.66,5.5,136.45,136.45,0,0,0-42.83-29.92l9.06-20.42a37.93,37.93,0,0,0,50-19.28l20.42,9.06a60.05,60.05,0,0,1-34.58,32.19,156.68,156.68,0,0,1,26.25,27.18Z" transform="translate(-12.42 -12.42)"/>
                <path class="a6b6d968-a998-45f4-90a4-cd0229469e86" d="M280.73,94.48l7.45,21.06a86.67,86.67,0,0,0-50.46,46.7l-20.42-9.06a86.62,86.62,0,0,0,5.5-53.66,136.54,136.54,0,0,0-29.92,42.83l-20.42-9.06a37.93,37.93,0,0,0-19.27-50l9.06-20.42a60.05,60.05,0,0,1,32.19,34.58,157.12,157.12,0,0,1,27.18-26.25l11.48-8.67,5.55,13.28A108.8,108.8,0,0,1,247,113.67a108.84,108.84,0,0,1,33.7-19.19" transform="translate(-12.42 -12.42)"/>
                <path class="1acbdc1e-5d89-4981-b25d-0f55a2c34441" d="M147.42,217.3l-9.06,20.42a60.06,60.06,0,0,1-32.19-34.58A156.68,156.68,0,0,1,79,229.39L67.5,238.06,62,224.78a108.84,108.84,0,0,1-8.39-37.86,108.73,108.73,0,0,1-33.69,19.2l-7.45-21.06A86.63,86.63,0,0,0,42,167.35a86.28,86.28,0,0,0,20.85-29l20.42,9.06a86.72,86.72,0,0,0-5.5,53.66,136.45,136.45,0,0,0,29.93-42.82l20.42,9.06a37.93,37.93,0,0,0,19.27,50" transform="translate(-12.42 -12.42)"/>
              </g>
            </g>
          </g>
        </g>
      </g>
    </g>
  </g>
</svg>
