<svg xmlns="http://www.w3.org/2000/svg" viewBox="0 0 282.38 231.29">
  <defs>
    <style>
      .bf78f825-3093-4246-81a4-b935d2f57a56 {
        fill: #fff;
      }

      .e0ec791a-cfd8-4dcc-afc4-65e510fed990 {
        fill: #50b0a0;
      }

      .e92ba35c-44b5-4a34-94c4-9a4823a3d8d7 {
        fill: #db6b49;
      }

      .e2190b1f-b97e-4635-85d1-3715b26ea62c {
        fill: #f3af3d;
      }

      .f3f43a96-b7d7-47f0-8a1f-b8322d2c7b74 {
        fill: #6267a9;
      }
    </style>
  </defs>
  <g id="f7191b15-0ef4-4f20-b23e-0bb5d9049cd7" data-name="Layer 2">
    <g id="a5cd7035-74c0-4b61-ae80-b621446e417d" data-name="Layer 1">
      <g>
        <path class="bf78f825-3093-4246-81a4-b935d2f57a56" d="M120.32,230.35c32.26,4.14,51.2-5.49,81-26.92C238.6,176.58,271.9,173,279.68,134c7-35.13-7.1-76.47-34-102.18C219.68,7,200.42-3,156,.77,115.71,4.21,95.15,26.66,72,56.48,48.34,87,30.49,105.41,39.88,147.63,53,206.47,85.36,225.86,120.32,230.35Z"/>
        <g>
          <g>
            <path class="e0ec791a-cfd8-4dcc-afc4-65e510fed990" d="M164.06,55.08,161,62.29a317.93,317.93,0,0,0-13.65,37.8c0,.17-.08.34-.12.46a286.84,286.84,0,0,0-10.92,111.26,124.29,124.29,0,0,0-41.13-80.76,324.09,324.09,0,0,1,22.66-78l11.24-26L151.41,44.4Q158,49.55,164.06,55.08Z"/>
            <path class="e0ec791a-cfd8-4dcc-afc4-65e510fed990" d="M88,196.37A56.11,56.11,0,0,1,90.38,204,74.16,74.16,0,0,0,88,196.37Z"/>
            <path class="e0ec791a-cfd8-4dcc-afc4-65e510fed990" d="M90.38,204a51.69,51.69,0,0,1,1.62,8C91.62,209.33,91,206.68,90.38,204Z"/>
            <path class="e0ec791a-cfd8-4dcc-afc4-65e510fed990" d="M92.57,216.14h-.06c-.13-1.37-.32-2.73-.51-4.09C92.24,213.41,92.43,214.77,92.57,216.14Z"/>
          </g>
          <path class="e92ba35c-44b5-4a34-94c4-9a4823a3d8d7" d="M282.38,63.59a182.77,182.77,0,0,0-44.44,131.92c.15,2.09.29,4.11.5,6.19h-.05a222.78,222.78,0,0,0-5.65-32.53A225.33,225.33,0,0,0,207,107a221.82,221.82,0,0,1,13.27-30,226.23,226.23,0,0,1,28.91-42.24l29.91,26Z"/>
          <path class="e2190b1f-b97e-4635-85d1-3715b26ea62c" d="M238.39,201.71,194.68,206a182.07,182.07,0,0,0-47.37-105.94,350.73,350.73,0,0,1,16.75-45C206.19,92.5,233,145.9,238.39,201.71Z"/>
          <path class="f3f43a96-b7d7-47f0-8a1f-b8322d2c7b74" d="M136.27,211.81l-43.7,4.33c-.14-1.37-.33-2.73-.57-4.09a51.69,51.69,0,0,0-1.62-8A56.11,56.11,0,0,0,88,196.37a35.09,35.09,0,0,0-1.48-3.72,29.64,29.64,0,0,0-1.62-3.59,58.82,58.82,0,0,0-3.78-6.92,34.5,34.5,0,0,0-2.09-3.27,60,60,0,0,0-4.7-6.22,62.5,62.5,0,0,0-5.58-6.08c-.92-1-1.89-1.8-2.86-2.7A80.37,80.37,0,0,0,4.33,143.79L0,100a124.44,124.44,0,0,1,95.08,31l.06.05A124.29,124.29,0,0,1,136.27,211.81Z"/>
        </g>
      </g>
    </g>
  </g>
</svg>
