<svg xmlns="http://www.w3.org/2000/svg" viewBox="0 0 1028.7 98.8">
  <defs>
    <style>
      .adb43db7-a619-425e-b7a9-8a5e42f7b399 {
        fill: #010101;
      }

      .bc044ea2-bc0c-41d0-aecd-51b27331ff73 {
        fill: #68aea0;
      }

      .bed3c56f-9ee7-4468-a1a4-082b75c28604 {
        fill: #da6b48;
      }

      .e086f5de-06ba-4232-b4fc-6975f5cf8f43 {
        fill: #eab154;
      }

      .b1827a08-5133-4c7c-aa86-5d04dd205818 {
        fill: #6366a9;
      }
    </style>
  </defs>
  <g id="ac058b03-ea0b-4a75-82b5-161a4feef79c" data-name="Layer 2">
    <g id="b6301397-4cc4-4e96-83fd-26d85bc69192" data-name="Layer 1">
      <g>
        <g>
          <path class="adb43db7-a619-425e-b7a9-8a5e42f7b399" d="M159.38,17.56l9.82,35.05q1.32,4.62,2.51,9.26t2.12,9.35H174q1-4.73,2.32-9.35c.84-3.09,1.71-6.18,2.59-9.26l10.2-35h4.63l10.39,35.05q1.33,4.72,2.65,9.3t2.46,9.31h.18c.7-3.15,1.4-6.25,2.13-9.31s1.52-6.15,2.41-9.3l9.54-35h5L211.8,77.07h-5L195.27,37.21q-1-3.41-2-6.85t-1.79-6.94h-.19q-.85,3.49-1.75,6.89c-.6,2.27-1.24,4.57-1.94,6.9L176.38,77.07h-4.91L154.28,17.56Z"/>
          <path class="adb43db7-a619-425e-b7a9-8a5e42f7b399" d="M235.89,36.55a41.25,41.25,0,0,1,8.17-3.4,29.79,29.79,0,0,1,8-1,18.79,18.79,0,0,1,5.71.85,12.3,12.3,0,0,1,4.72,2.74,12.85,12.85,0,0,1,3.21,5,20.94,20.94,0,0,1,1.19,7.51v28.9h-3.41l-1-5.85h-.19a17.74,17.74,0,0,1-6.43,5,19.84,19.84,0,0,1-8.21,1.65,17.85,17.85,0,0,1-5.77-.9,13.3,13.3,0,0,1-4.58-2.6,11.8,11.8,0,0,1-3-4.11,12.7,12.7,0,0,1-1.09-5.33,12.85,12.85,0,0,1,1.42-6.14,12.27,12.27,0,0,1,4-4.39,17.94,17.94,0,0,1,6.09-2.6,33.66,33.66,0,0,1,7.89-.85H262V48c0-4.28-.94-7.34-2.83-9.16a10.15,10.15,0,0,0-7.37-2.74,27.74,27.74,0,0,0-6.33.85A30,30,0,0,0,237.78,40ZM262,54.78l-7.84.09a32,32,0,0,0-7.27.9,17,17,0,0,0-5,2.08,7.74,7.74,0,0,0-2.79,3,8.53,8.53,0,0,0-.85,3.73,9.66,9.66,0,0,0,.85,4.21,8.43,8.43,0,0,0,2.27,2.88,9.06,9.06,0,0,0,3.35,1.65,15.64,15.64,0,0,0,4.11.52,15.34,15.34,0,0,0,3.5-.42,16.09,16.09,0,0,0,3.54-1.33,17,17,0,0,0,3.35-2.26A12.45,12.45,0,0,0,262,66.49Z"/>
          <path class="adb43db7-a619-425e-b7a9-8a5e42f7b399" d="M306.46,32.68h5.19L296.06,77.07h-4.34L275.94,32.68h5.2l10.49,31.45,2.26,8.79h.19l2.08-8.69Z"/>
          <path class="adb43db7-a619-425e-b7a9-8a5e42f7b399" d="M354.63,54.87H323V56.2q0,8.31,4.48,13t12.24,4.67a31.62,31.62,0,0,0,11.52-2.08l1.13,3.78a26.62,26.62,0,0,1-5.9,1.65,40,40,0,0,1-7,.62,26,26,0,0,1-8.36-1.32,18.46,18.46,0,0,1-6.85-4.11,19.48,19.48,0,0,1-4.62-7.09A28,28,0,0,1,317.89,55a30,30,0,0,1,1.41-9.45,20.56,20.56,0,0,1,4.06-7.22,18.13,18.13,0,0,1,6.24-4.58,19.45,19.45,0,0,1,8-1.61,17.33,17.33,0,0,1,6.94,1.37A14.94,14.94,0,0,1,350,37.4a18.41,18.41,0,0,1,3.44,6.14,24.34,24.34,0,0,1,1.23,7.93Zm-5.1-4a22.67,22.67,0,0,0-.66-5.43,13.81,13.81,0,0,0-2.13-4.77A11,11,0,0,0,343,37.35a11.47,11.47,0,0,0-5.62-1.27A12.91,12.91,0,0,0,327.76,40q-3.83,3.87-4.59,11Z"/>
          <path class="adb43db7-a619-425e-b7a9-8a5e42f7b399" d="M389.77,17.56h4.91V73.11H422v4H389.77Z"/>
          <path class="adb43db7-a619-425e-b7a9-8a5e42f7b399" d="M464.11,54.87H432.46V56.2q0,8.31,4.49,13t12.23,4.67a31.64,31.64,0,0,0,11.53-2.08l1.13,3.78a26.77,26.77,0,0,1-5.9,1.65,40.07,40.07,0,0,1-7,.62,26,26,0,0,1-8.36-1.32,18.38,18.38,0,0,1-6.85-4.11,19.63,19.63,0,0,1-4.63-7.09A28.16,28.16,0,0,1,427.36,55a29.94,29.94,0,0,1,1.42-9.45,20.41,20.41,0,0,1,4.06-7.22,18,18,0,0,1,6.24-4.58,19.42,19.42,0,0,1,8-1.61,17.36,17.36,0,0,1,6.94,1.37,14.82,14.82,0,0,1,5.38,3.92,18.26,18.26,0,0,1,3.45,6.14,24.34,24.34,0,0,1,1.23,7.93Zm-5.1-4a22.67,22.67,0,0,0-.66-5.43,13.81,13.81,0,0,0-2.13-4.77,11.14,11.14,0,0,0-3.78-3.36,11.47,11.47,0,0,0-5.62-1.27A12.93,12.93,0,0,0,437.23,40q-3.83,3.87-4.58,11Z"/>
          <path class="adb43db7-a619-425e-b7a9-8a5e42f7b399" d="M476.1,36.55a41.32,41.32,0,0,1,8.18-3.4,29.66,29.66,0,0,1,8-1A18.74,18.74,0,0,1,498,33a12.34,12.34,0,0,1,4.73,2.74,13.08,13.08,0,0,1,3.21,5,21.18,21.18,0,0,1,1.18,7.51v28.9h-3.4l-1-5.85h-.19a17.79,17.79,0,0,1-6.42,5,19.92,19.92,0,0,1-8.22,1.65,17.75,17.75,0,0,1-5.76-.9,13.26,13.26,0,0,1-4.59-2.6,11.8,11.8,0,0,1-3-4.11,13.89,13.89,0,0,1,.33-11.47,12.36,12.36,0,0,1,4-4.39,17.94,17.94,0,0,1,6.09-2.6,33.66,33.66,0,0,1,7.89-.85h9.45V48c0-4.28-.95-7.34-2.84-9.16A10.14,10.14,0,0,0,492,36.08a27.66,27.66,0,0,0-6.32.85A29.88,29.88,0,0,0,478,40Zm26.08,18.23-7.84.09a32.11,32.11,0,0,0-7.28.9,17.1,17.1,0,0,0-5,2.08,7.64,7.64,0,0,0-2.78,3,8.39,8.39,0,0,0-.85,3.73,9.52,9.52,0,0,0,.85,4.21,8.28,8.28,0,0,0,2.26,2.88,9.11,9.11,0,0,0,3.36,1.65,15.64,15.64,0,0,0,4.11.52,15.32,15.32,0,0,0,3.49-.42,15.72,15.72,0,0,0,3.54-1.33,17.06,17.06,0,0,0,3.36-2.26,12.64,12.64,0,0,0,2.74-3.36Z"/>
          <path class="adb43db7-a619-425e-b7a9-8a5e42f7b399" d="M522.2,77.07V32.68h3.21l1.14,8.88A14,14,0,0,1,532,34.71a15.24,15.24,0,0,1,8.69-2.6,18.47,18.47,0,0,1,4,.38,11.47,11.47,0,0,1,2.65.85l-1,4.34a20,20,0,0,0-2.55-.85,12.91,12.91,0,0,0-3.3-.38,13.94,13.94,0,0,0-5.15.95,11.48,11.48,0,0,0-4.25,2.93,14.31,14.31,0,0,0-2.93,5,20.36,20.36,0,0,0-1.09,7V77.07Z"/>
          <path class="adb43db7-a619-425e-b7a9-8a5e42f7b399" d="M562.16,77.07h-4.91V32.68h3.59l.75,6.14A28.47,28.47,0,0,1,568.54,34,18.77,18.77,0,0,1,577,32.11q6.79,0,10.63,3.78t3.82,10.58v30.6h-4.91V47.7a19.15,19.15,0,0,0-.52-4.59,9.24,9.24,0,0,0-1.79-3.68,8.69,8.69,0,0,0-3.4-2.46,13.71,13.71,0,0,0-5.25-.89,15.29,15.29,0,0,0-7.13,1.84,21.63,21.63,0,0,0-6.28,5Z"/>
          <path class="adb43db7-a619-425e-b7a9-8a5e42f7b399" d="M610.62,21.25a3.68,3.68,0,0,1-2.6-1,3.59,3.59,0,0,1-1.09-2.78,4,4,0,0,1,1-2.93,3.5,3.5,0,0,1,2.55-1,3.62,3.62,0,0,1,2.51,1,3.86,3.86,0,0,1,1.08,3,3.61,3.61,0,0,1-1,2.83A3.52,3.52,0,0,1,610.62,21.25Zm-2.55,55.82V32.68H613V77.07Z"/>
          <path class="adb43db7-a619-425e-b7a9-8a5e42f7b399" d="M634.51,77.07H629.6V32.68h3.59l.76,6.14A28.42,28.42,0,0,1,640.89,34a18.85,18.85,0,0,1,8.46-1.84q6.79,0,10.62,3.78t3.83,10.58v30.6h-4.91V47.7a19.67,19.67,0,0,0-.52-4.59,9.26,9.26,0,0,0-1.8-3.68,8.62,8.62,0,0,0-3.4-2.46,13.65,13.65,0,0,0-5.24-.89,15.26,15.26,0,0,0-7.13,1.84,21.54,21.54,0,0,0-6.29,5Z"/>
          <path class="adb43db7-a619-425e-b7a9-8a5e42f7b399" d="M677.31,47.41a16.06,16.06,0,0,1,1.27-6.56A12.82,12.82,0,0,1,682.22,36a16.16,16.16,0,0,1,5.62-2.93,24.43,24.43,0,0,1,7.13-1,20.08,20.08,0,0,1,3,.19l2.5.38h18.42v3.77h-5.48l-8.22-.56a12.19,12.19,0,0,1,4.73,4.72,13.3,13.3,0,0,1,1.79,6.71,16.06,16.06,0,0,1-1.27,6.56,13.56,13.56,0,0,1-3.59,4.87,15.52,15.52,0,0,1-5.44,3,22.3,22.3,0,0,1-6.8,1c-.88,0-1.74,0-2.59-.1a21.59,21.59,0,0,1-2.7-.38,8.5,8.5,0,0,0-3.68,2.6,5.7,5.7,0,0,0-1.42,3.64A3.8,3.8,0,0,0,686,72a9.16,9.16,0,0,0,4.68,1.09h11.52q7.38,0,11.15,3.11a9.94,9.94,0,0,1,3.78,8,12.1,12.1,0,0,1-1.51,6,13.44,13.44,0,0,1-4.35,4.58,22.3,22.3,0,0,1-6.89,2.93,37.24,37.24,0,0,1-9.17,1q-9.25,0-14.73-3.64a11.37,11.37,0,0,1-5.48-10,8.89,8.89,0,0,1,2-5.91,13,13,0,0,1,5.81-3.73,6.78,6.78,0,0,1-2.5-2.5,8.12,8.12,0,0,1,.71-9.16,13,13,0,0,1,4.15-3.17,11.57,11.57,0,0,1-2.93-1.89,14.6,14.6,0,0,1-2.55-2.93A14.76,14.76,0,0,1,678,52.09,15.75,15.75,0,0,1,677.31,47.41Zm9.16,29.66A10.38,10.38,0,0,0,682,80a6.82,6.82,0,0,0-1.75,4.63,8.38,8.38,0,0,0,4.21,7.65q4.2,2.55,10.91,2.55a28,28,0,0,0,7.6-.9,16.62,16.62,0,0,0,5.2-2.36,9.46,9.46,0,0,0,3-3.3,8.13,8.13,0,0,0,1-3.73,7,7,0,0,0-.9-3.74,6,6,0,0,0-2.55-2.26,13.14,13.14,0,0,0-3.87-1.14,33.3,33.3,0,0,0-4.87-.33ZM706.59,47.6q0-5.57-3.21-8.55a11.9,11.9,0,0,0-8.41-3,16.14,16.14,0,0,0-4.91.71,11.91,11.91,0,0,0-4,2.07,9.88,9.88,0,0,0-2.69,3.45,11.32,11.32,0,0,0-1,4.91q0,5.87,3.49,8.69a14.79,14.79,0,0,0,17.29.1Q706.6,53.27,706.59,47.6Z"/>
          <path class="adb43db7-a619-425e-b7a9-8a5e42f7b399" d="M785.37,17.56v4H757.22v23.8h26.07v3.88H757.22V77.07h-4.91V17.56Z"/>
          <path class="adb43db7-a619-425e-b7a9-8a5e42f7b399" d="M828.44,54.87H796.8V56.2q0,8.31,4.48,13t12.24,4.67A31.62,31.62,0,0,0,825,71.78l1.13,3.78a26.62,26.62,0,0,1-5.9,1.65,40,40,0,0,1-7,.62,26.06,26.06,0,0,1-8.36-1.32A18.46,18.46,0,0,1,798,72.4a19.48,19.48,0,0,1-4.62-7.09A28,28,0,0,1,791.7,55a30,30,0,0,1,1.41-9.45,20.56,20.56,0,0,1,4.06-7.22,18.13,18.13,0,0,1,6.24-4.58,19.45,19.45,0,0,1,8-1.61,17.33,17.33,0,0,1,6.94,1.37,14.86,14.86,0,0,1,5.39,3.92,18.41,18.41,0,0,1,3.44,6.14,24.34,24.34,0,0,1,1.23,7.93Zm-5.1-4a22.67,22.67,0,0,0-.66-5.43,13.81,13.81,0,0,0-2.13-4.77,11,11,0,0,0-3.77-3.36,11.53,11.53,0,0,0-5.62-1.27A12.92,12.92,0,0,0,801.57,40q-3.83,3.87-4.58,11Z"/>
          <path class="adb43db7-a619-425e-b7a9-8a5e42f7b399" d="M864.24,38.25A24.31,24.31,0,0,0,854,36.08q-5.1,0-7.66,2.12a6.76,6.76,0,0,0-2.55,5.43,6.12,6.12,0,0,0,2.18,5.06c1.44,1.16,4,2.28,7.65,3.35l2.83.85a17.7,17.7,0,0,1,8.22,4.72,11,11,0,0,1,2.83,7.66,12,12,0,0,1-1,5,11.43,11.43,0,0,1-3,4,13.87,13.87,0,0,1-5,2.64,22.58,22.58,0,0,1-6.85,1,35.06,35.06,0,0,1-7.46-.71,28.17,28.17,0,0,1-5.67-1.84l1.33-3.87a23.2,23.2,0,0,0,5.1,1.84,27.78,27.78,0,0,0,6.23.61q5.39,0,8.31-2.08a6.83,6.83,0,0,0,2.93-6,7.36,7.36,0,0,0-2.12-5.24q-2.13-2.22-7.51-3.92l-3-1q-11.06-3.48-11.06-11.61a10.92,10.92,0,0,1,4.11-8.65A14.79,14.79,0,0,1,847.38,33a18.85,18.85,0,0,1,6-.9,43.51,43.51,0,0,1,6.23.47,19.47,19.47,0,0,1,5.86,1.8Z"/>
          <path class="adb43db7-a619-425e-b7a9-8a5e42f7b399" d="M903.25,36.45H888.33v29.1q0,4.44,2,6a8.67,8.67,0,0,0,5.48,1.56,24.07,24.07,0,0,0,5.1-.52,34.22,34.22,0,0,0,4-1.09l.76,3.68A27.55,27.55,0,0,1,901,76.51a30.52,30.52,0,0,1-6,.56c-3.78,0-6.64-.89-8.59-2.69s-2.93-4.52-2.93-8.17V36.45h-8V32.68h8V18.51h4.91V32.68h14.92Z"/>
          <path class="adb43db7-a619-425e-b7a9-8a5e42f7b399" d="M919.31,21.25a3.7,3.7,0,0,1-2.6-1,3.59,3.59,0,0,1-1.08-2.78,3.93,3.93,0,0,1,1-2.93,3.47,3.47,0,0,1,2.55-1,3.62,3.62,0,0,1,2.5,1,3.86,3.86,0,0,1,1.09,3,3.64,3.64,0,0,1-1,2.83A3.55,3.55,0,0,1,919.31,21.25Zm-2.55,55.82V32.68h4.91V77.07Z"/>
          <path class="adb43db7-a619-425e-b7a9-8a5e42f7b399" d="M963.05,32.68h5.19L952.65,77.07h-4.34L932.53,32.68h5.2l10.48,31.45,2.27,8.79h.19l2.08-8.69Z"/>
          <path class="adb43db7-a619-425e-b7a9-8a5e42f7b399" d="M977.12,36.55a41.25,41.25,0,0,1,8.17-3.4,29.77,29.77,0,0,1,8-1A18.8,18.8,0,0,1,999,33a12.3,12.3,0,0,1,4.72,2.74,13.08,13.08,0,0,1,3.21,5,21,21,0,0,1,1.18,7.51v28.9h-3.4l-1-5.85h-.18a17.74,17.74,0,0,1-6.43,5,19.85,19.85,0,0,1-8.22,1.65,17.79,17.79,0,0,1-5.76-.9,13.3,13.3,0,0,1-4.58-2.6,11.8,11.8,0,0,1-3-4.11,13.79,13.79,0,0,1,.33-11.47,12.27,12.27,0,0,1,4-4.39,17.94,17.94,0,0,1,6.09-2.6,33.66,33.66,0,0,1,7.89-.85h9.44V48c0-4.28-.94-7.34-2.83-9.16A10.15,10.15,0,0,0,993,36.08a27.67,27.67,0,0,0-6.33.85A30,30,0,0,0,979,40Zm26.07,18.23-7.84.09a32,32,0,0,0-7.27.9,17,17,0,0,0-5,2.08,7.74,7.74,0,0,0-2.79,3,8.53,8.53,0,0,0-.85,3.73,9.66,9.66,0,0,0,.85,4.21,8.31,8.31,0,0,0,2.27,2.88A9,9,0,0,0,986,73.34a15.64,15.64,0,0,0,4.11.52,15.34,15.34,0,0,0,3.5-.42,16.09,16.09,0,0,0,3.54-1.33,17.3,17.3,0,0,0,3.35-2.26,12.45,12.45,0,0,0,2.74-3.36Z"/>
          <path class="adb43db7-a619-425e-b7a9-8a5e42f7b399" d="M1023.78,77.07V10h4.92V77.07Z"/>
        </g>
        <g>
          <g>
            <path class="bc044ea2-bc0c-41d0-aecd-51b27331ff73" d="M69.87,13.05l-1.58,2.87A129.88,129.88,0,0,0,61.08,31c0,.07,0,.14-.07.18A119.49,119.49,0,0,0,51.92,76.9,51.79,51.79,0,0,0,38.18,41.73a134.63,134.63,0,0,1,12.59-31.4L56.5,0l8.56,8.11Q67.61,10.51,69.87,13.05Z"/>
            <path class="bc044ea2-bc0c-41d0-aecd-51b27331ff73" d="M32.54,68.52a23.13,23.13,0,0,1,.67,3.27A29.6,29.6,0,0,0,32.54,68.52Z"/>
            <path class="bc044ea2-bc0c-41d0-aecd-51b27331ff73" d="M33.21,71.79a21.76,21.76,0,0,1,.34,3.39C33.5,74,33.37,72.92,33.21,71.79Z"/>
            <path class="bc044ea2-bc0c-41d0-aecd-51b27331ff73" d="M33.62,76.9h0c0-.57,0-1.14-.05-1.72C33.6,75.76,33.62,76.33,33.62,76.9Z"/>
          </g>
          <path class="bed3c56f-9ee7-4468-a1a4-082b75c28604" d="M118.58,21.43A76.22,76.22,0,0,0,94.74,74.31c0,.87,0,1.72,0,2.59h0a91.8,91.8,0,0,0-1-13.72,93.67,93.67,0,0,0-8.13-26.86,92.39,92.39,0,0,1,6.74-11.89A94.34,94.34,0,0,1,106,8.11l11.34,12Z"/>
          <path class="e086f5de-06ba-4232-b4fc-6975f5cf8f43" d="M94.67,76.9H76.37A74.4,74.4,0,0,0,72.89,54,74.57,74.57,0,0,0,61.08,31a145.78,145.78,0,0,1,8.79-18A94.62,94.62,0,0,1,94.67,76.9Z"/>
          <path class="b1827a08-5133-4c7c-aa86-5d04dd205818" d="M51.92,76.9H33.62c0-.57,0-1.14-.07-1.72a21.76,21.76,0,0,0-.34-3.39,23.13,23.13,0,0,0-.67-3.27,11.61,11.61,0,0,0-.46-1.6,11.89,11.89,0,0,0-.52-1.56,24.25,24.25,0,0,0-1.29-3,11.58,11.58,0,0,0-.73-1.45,25,25,0,0,0-1.69-2.77,27,27,0,0,0-2.06-2.75c-.35-.43-.71-.82-1.08-1.23A33.48,33.48,0,0,0,0,43.28V25A51.86,51.86,0,0,1,38.15,41.7l0,0A51.79,51.79,0,0,1,51.92,76.9Z"/>
        </g>
      </g>
    </g>
  </g>
</svg>
