<svg xmlns="http://www.w3.org/2000/svg" viewBox="0 0 1022.18 121.63">
  <defs>
    <style>
      .df8d3cd6-2634-4853-bf30-eb2315840208 {
        fill: #69afa1;
      }

      .df434d54-39e6-4f54-9e6c-878d054eccfe {
        fill: #db6b49;
      }

      .\30 2c32199-a2de-468f-804c-4651e3625cf6 {
        fill: #f3af3d;
      }

      .ed4a27cc-00e7-4da4-ad97-b5cd7547d135 {
        fill: #6265ad;
      }
    </style>
  </defs>
  <title>logo with type_1</title>
  <g id="5a1bbfa2-801f-487a-950b-bf9b565cf444" data-name="Layer 2">
    <g id="a7f4053f-297a-44c8-b04c-78808166e16e" data-name="Layer 1">
      <g>
        <path class="df8d3cd6-2634-4853-bf30-eb2315840208" d="M112.51,5.34l8.2,8.67a46.32,46.32,0,0,0-14.54,33.75H94.24A46.3,46.3,0,0,0,85.3,20.36,73,73,0,0,0,80,47.77H68A20.27,20.27,0,0,0,47.77,27.52V15.58A32.1,32.1,0,0,1,71,25.5,84,84,0,0,1,78.58,6.78L82.31.06,87.9,5.34A58.16,58.16,0,0,1,100.21,22,58.17,58.17,0,0,1,112.51,5.34Z" transform="translate(-0.06 -0.06)"/>
        <path class="df434d54-39e6-4f54-9e6c-878d054eccfe" d="M74,106.18V94.24A46.35,46.35,0,0,0,101.4,85.3,72.93,72.93,0,0,0,74,80V68A20.27,20.27,0,0,0,94.24,47.77h11.94A32.1,32.1,0,0,1,96.26,71,83.74,83.74,0,0,1,115,78.58l6.73,3.73-5.29,5.59a58.13,58.13,0,0,1-16.68,12.3,58.17,58.17,0,0,1,16.68,12.3l-8.67,8.21A46.3,46.3,0,0,0,74,106.18Z" transform="translate(-0.06 -0.06)"/>
        <path class="02c32199-a2de-468f-804c-4651e3625cf6" d="M74,94.24v11.94a32.1,32.1,0,0,1-23.22-9.92A83.74,83.74,0,0,1,43.17,115l-3.73,6.72-5.59-5.28a58.17,58.17,0,0,1-12.3-16.68,58.11,58.11,0,0,1-12.3,16.68L1,107.74A46.31,46.31,0,0,0,11.67,92.67,46.11,46.11,0,0,0,15.58,74H27.52a46.35,46.35,0,0,0,8.94,27.41A72.93,72.93,0,0,0,41.8,74H53.74A20.27,20.27,0,0,0,74,94.24Z" transform="translate(-0.06 -0.06)"/>
        <path class="ed4a27cc-00e7-4da4-ad97-b5cd7547d135" d="M47.77,15.58V27.52a46.33,46.33,0,0,0-27.41,8.94A72.92,72.92,0,0,0,47.77,41.8V53.74A20.27,20.27,0,0,0,27.52,74H15.58A32.11,32.11,0,0,1,25.5,50.76,83.73,83.73,0,0,1,6.78,43.17L.06,39.44l5.28-5.59A58.1,58.1,0,0,1,22,21.55,58.14,58.14,0,0,1,5.34,9.25L14,1A46.28,46.28,0,0,0,29.09,11.67,46.12,46.12,0,0,0,47.77,15.58Z" transform="translate(-0.06 -0.06)"/>
      </g>
      <g>
        <path d="M152.92,33.12l9.82,35q1.32,4.63,2.5,9.26t2.13,9.35h.19q1-4.72,2.31-9.35t2.6-9.26l10.2-35h4.63l10.39,35q1.32,4.72,2.65,9.3t2.46,9.3H203q1-4.72,2.13-9.3t2.41-9.3l9.54-35h5L205.35,92.63h-5L188.82,52.77q-1-3.4-2-6.85T185,39h-.19q-.85,3.5-1.75,6.9t-1.94,6.9L169.93,92.63H165L147.82,33.12Z" transform="translate(-0.06 -0.06)"/>
        <path d="M229.44,52.1a41.31,41.31,0,0,1,8.17-3.4,29.65,29.65,0,0,1,8-1,18.87,18.87,0,0,1,5.71.85A12.28,12.28,0,0,1,256,51.25a13.05,13.05,0,0,1,3.21,5,21,21,0,0,1,1.18,7.51V92.63H257l-1-5.86h-.19a17.68,17.68,0,0,1-6.42,5,19.86,19.86,0,0,1-8.22,1.65,17.85,17.85,0,0,1-5.76-.9,13.33,13.33,0,0,1-4.58-2.6,11.88,11.88,0,0,1-3-4.11,13.84,13.84,0,0,1,.33-11.48,12.34,12.34,0,0,1,4-4.39,18.18,18.18,0,0,1,6.09-2.6,33.83,33.83,0,0,1,7.89-.85h9.45V63.53q0-6.42-2.83-9.16a10.16,10.16,0,0,0-7.37-2.74,27.87,27.87,0,0,0-6.33.85,30.11,30.11,0,0,0-7.65,3.12Zm26.07,18.23-7.84.09a31.44,31.44,0,0,0-7.27.9,16.89,16.89,0,0,0-5,2.08,7.67,7.67,0,0,0-2.79,3,8.43,8.43,0,0,0-.85,3.73,9.53,9.53,0,0,0,.85,4.2,8.22,8.22,0,0,0,2.27,2.88,9,9,0,0,0,3.35,1.65,15.78,15.78,0,0,0,4.11.52,15.15,15.15,0,0,0,3.5-.42,15.64,15.64,0,0,0,3.54-1.32,17.42,17.42,0,0,0,3.35-2.27A12.5,12.5,0,0,0,255.51,82Z" transform="translate(-0.06 -0.06)"/>
        <path d="M300,48.23h5.2l-15.59,44.4h-4.34l-15.78-44.4h5.2l10.49,31.46,2.27,8.79h.19l2.08-8.69Z" transform="translate(-0.06 -0.06)"/>
        <path d="M348.18,70.43H316.53v1.32q0,8.31,4.49,13t12.23,4.68a31.72,31.72,0,0,0,11.52-2.08l1.13,3.78a27.63,27.63,0,0,1-5.9,1.65,40.09,40.09,0,0,1-7,.61,26,26,0,0,1-8.36-1.32A18.27,18.27,0,0,1,317.76,88a19.49,19.49,0,0,1-4.63-7.08,28.11,28.11,0,0,1-1.7-10.34,29.73,29.73,0,0,1,1.42-9.45,20.45,20.45,0,0,1,4.06-7.23,18.19,18.19,0,0,1,6.23-4.58,19.45,19.45,0,0,1,8-1.61A17.32,17.32,0,0,1,338.12,49,14.89,14.89,0,0,1,343.5,53a18.23,18.23,0,0,1,3.45,6.14A24.41,24.41,0,0,1,348.18,67Zm-5.1-4a22.71,22.71,0,0,0-.66-5.43,14,14,0,0,0-2.12-4.77,11.12,11.12,0,0,0-3.78-3.35,11.49,11.49,0,0,0-5.62-1.28,12.92,12.92,0,0,0-9.59,3.87q-3.83,3.87-4.58,11Z" transform="translate(-0.06 -0.06)"/>
        <path d="M383.31,33.12h4.91V88.66h27.3v4H383.31Z" transform="translate(-0.06 -0.06)"/>
        <path d="M457.65,70.43H426v1.32q0,8.31,4.49,13t12.23,4.68a31.72,31.72,0,0,0,11.52-2.08l1.13,3.78a27.63,27.63,0,0,1-5.9,1.65,40.09,40.09,0,0,1-7,.61,26,26,0,0,1-8.36-1.32A18.27,18.27,0,0,1,427.24,88a19.49,19.49,0,0,1-4.63-7.08,28.11,28.11,0,0,1-1.7-10.34,29.73,29.73,0,0,1,1.42-9.45,20.45,20.45,0,0,1,4.06-7.23,18.19,18.19,0,0,1,6.23-4.58,19.45,19.45,0,0,1,8-1.61A17.32,17.32,0,0,1,447.59,49,14.89,14.89,0,0,1,453,53a18.23,18.23,0,0,1,3.45,6.14A24.41,24.41,0,0,1,457.65,67Zm-5.1-4a22.71,22.71,0,0,0-.66-5.43,14,14,0,0,0-2.12-4.77A11.12,11.12,0,0,0,446,52.91a11.49,11.49,0,0,0-5.62-1.28,12.92,12.92,0,0,0-9.59,3.87q-3.83,3.87-4.58,11Z" transform="translate(-0.06 -0.06)"/>
        <path d="M469.65,52.1a41.31,41.31,0,0,1,8.17-3.4,29.65,29.65,0,0,1,8-1,18.87,18.87,0,0,1,5.71.85,12.28,12.28,0,0,1,4.72,2.74,13.05,13.05,0,0,1,3.21,5,21,21,0,0,1,1.18,7.51V92.63h-3.4l-1-5.86H496a17.68,17.68,0,0,1-6.42,5,19.86,19.86,0,0,1-8.22,1.65,17.85,17.85,0,0,1-5.76-.9,13.33,13.33,0,0,1-4.58-2.6,11.88,11.88,0,0,1-3-4.11,13.84,13.84,0,0,1,.33-11.48,12.34,12.34,0,0,1,4-4.39,18.18,18.18,0,0,1,6.09-2.6,33.83,33.83,0,0,1,7.89-.85h9.45V63.53q0-6.42-2.83-9.16a10.16,10.16,0,0,0-7.37-2.74,27.87,27.87,0,0,0-6.33.85,30.11,30.11,0,0,0-7.65,3.12Zm26.07,18.23-7.84.09a31.44,31.44,0,0,0-7.27.9,16.89,16.89,0,0,0-5,2.08,7.67,7.67,0,0,0-2.79,3,8.43,8.43,0,0,0-.85,3.73,9.53,9.53,0,0,0,.85,4.2,8.22,8.22,0,0,0,2.27,2.88,9,9,0,0,0,3.35,1.65,15.78,15.78,0,0,0,4.11.52,15.15,15.15,0,0,0,3.5-.42,15.64,15.64,0,0,0,3.54-1.32A17.42,17.42,0,0,0,493,85.4,12.5,12.5,0,0,0,495.72,82Z" transform="translate(-0.06 -0.06)"/>
        <path d="M515.75,92.63V48.23H519l1.13,8.88a14.07,14.07,0,0,1,5.48-6.85,15.25,15.25,0,0,1,8.69-2.6,18.51,18.51,0,0,1,4,.38,11.92,11.92,0,0,1,2.65.85l-.95,4.35a20.23,20.23,0,0,0-2.55-.85,13,13,0,0,0-3.31-.38,14,14,0,0,0-5.15.94,11.47,11.47,0,0,0-4.25,2.93,14.47,14.47,0,0,0-2.93,5,20.52,20.52,0,0,0-1.09,7V92.63Z" transform="translate(-0.06 -0.06)"/>
        <path d="M555.7,92.63h-4.91V48.23h3.59l.76,6.14a28.52,28.52,0,0,1,6.94-4.86,18.84,18.84,0,0,1,8.46-1.84q6.8,0,10.63,3.78T585,62V92.63h-4.91V63.25a19.3,19.3,0,0,0-.52-4.58A9.16,9.16,0,0,0,577.76,55a8.63,8.63,0,0,0-3.4-2.46,13.51,13.51,0,0,0-5.24-.9A15.32,15.32,0,0,0,562,53.47a21.55,21.55,0,0,0-6.28,5Z" transform="translate(-0.06 -0.06)"/>
        <path d="M604.16,36.8a3.72,3.72,0,0,1-2.6-1A3.58,3.58,0,0,1,600.48,33a4,4,0,0,1,1-2.93,3.46,3.46,0,0,1,2.55-1,3.6,3.6,0,0,1,2.5,1,3.83,3.83,0,0,1,1.09,3,3.64,3.64,0,0,1-1,2.83A3.53,3.53,0,0,1,604.16,36.8Zm-2.55,55.83V48.23h4.91v44.4Z" transform="translate(-0.06 -0.06)"/>
        <path d="M628.06,92.63h-4.91V48.23h3.59l.76,6.14a28.52,28.52,0,0,1,6.94-4.86,18.84,18.84,0,0,1,8.46-1.84q6.8,0,10.63,3.78T657.34,62V92.63h-4.91V63.25a19.3,19.3,0,0,0-.52-4.58A9.16,9.16,0,0,0,650.12,55a8.63,8.63,0,0,0-3.4-2.46,13.51,13.51,0,0,0-5.24-.9,15.32,15.32,0,0,0-7.13,1.84,21.55,21.55,0,0,0-6.28,5Z" transform="translate(-0.06 -0.06)"/>
        <path d="M670.85,63a16.07,16.07,0,0,1,1.28-6.57,12.86,12.86,0,0,1,3.64-4.82,16.18,16.18,0,0,1,5.62-2.93,24.4,24.4,0,0,1,7.13-1,20.62,20.62,0,0,1,3,.19l2.5.38h18.42V52h-5.48l-8.22-.57a12.18,12.18,0,0,1,4.72,4.72,13.23,13.23,0,0,1,1.79,6.71A16.06,16.06,0,0,1,704,69.44a13.5,13.5,0,0,1-3.59,4.86,15.42,15.42,0,0,1-5.43,3,22.32,22.32,0,0,1-6.8,1c-.88,0-1.75,0-2.6-.09a21.92,21.92,0,0,1-2.69-.38,8.46,8.46,0,0,0-3.68,2.6A5.72,5.72,0,0,0,677.75,84a3.79,3.79,0,0,0,1.84,3.54,9.09,9.09,0,0,0,4.68,1.09h11.52q7.37,0,11.15,3.12a9.94,9.94,0,0,1,3.78,8,12.06,12.06,0,0,1-1.51,6,13.39,13.39,0,0,1-4.35,4.58,22.37,22.37,0,0,1-6.9,2.93,37.07,37.07,0,0,1-9.16,1q-9.26,0-14.74-3.64a11.36,11.36,0,0,1-5.48-10,8.84,8.84,0,0,1,2-5.9,13,13,0,0,1,5.81-3.73,6.76,6.76,0,0,1-2.5-2.5,8.14,8.14,0,0,1,.71-9.16,13,13,0,0,1,4.16-3.16,11.53,11.53,0,0,1-2.93-1.89,14.45,14.45,0,0,1-2.55-2.93,14.7,14.7,0,0,1-1.79-3.83A15.66,15.66,0,0,1,670.85,63ZM680,92.63a10.31,10.31,0,0,0-4.49,2.93,6.78,6.78,0,0,0-1.75,4.63,8.37,8.37,0,0,0,4.2,7.65q4.2,2.55,10.91,2.55a28.18,28.18,0,0,0,7.6-.9,16.65,16.65,0,0,0,5.2-2.36,9.46,9.46,0,0,0,3-3.31,8.12,8.12,0,0,0,.94-3.73,7,7,0,0,0-.9-3.73,6,6,0,0,0-2.55-2.27A13.33,13.33,0,0,0,698.29,93a33,33,0,0,0-4.86-.33Zm20.12-29.47q0-5.57-3.21-8.55a11.88,11.88,0,0,0-8.41-3,16.4,16.4,0,0,0-4.91.71,11.93,11.93,0,0,0-4,2.08,9.75,9.75,0,0,0-2.69,3.45,11.3,11.3,0,0,0-1,4.91q0,5.86,3.5,8.69a14.8,14.8,0,0,0,17.29.09Q700.13,68.82,700.13,63.16Z" transform="translate(-0.06 -0.06)"/>
        <path d="M778.91,33.12v4H750.76v23.8h26.07v3.87H750.76V92.63h-4.91V33.12Z" transform="translate(-0.06 -0.06)"/>
        <path d="M822,70.43H790.34v1.32q0,8.31,4.49,13t12.23,4.68a31.72,31.72,0,0,0,11.52-2.08l1.13,3.78a27.63,27.63,0,0,1-5.9,1.65,40.09,40.09,0,0,1-7,.61,26,26,0,0,1-8.36-1.32A18.27,18.27,0,0,1,791.57,88a19.49,19.49,0,0,1-4.63-7.08,28.11,28.11,0,0,1-1.7-10.34,29.73,29.73,0,0,1,1.42-9.45,20.45,20.45,0,0,1,4.06-7.23A18.19,18.19,0,0,1,797,49.27a19.45,19.45,0,0,1,8-1.61A17.32,17.32,0,0,1,811.93,49,14.89,14.89,0,0,1,817.31,53a18.23,18.23,0,0,1,3.45,6.14A24.41,24.41,0,0,1,822,67Zm-5.1-4a22.71,22.71,0,0,0-.66-5.43,14,14,0,0,0-2.12-4.77,11.12,11.12,0,0,0-3.78-3.35,11.49,11.49,0,0,0-5.62-1.28,12.92,12.92,0,0,0-9.59,3.87q-3.83,3.87-4.58,11Z" transform="translate(-0.06 -0.06)"/>
        <path d="M857.79,53.8a24.35,24.35,0,0,0-10.3-2.17q-5.1,0-7.65,2.13a6.76,6.76,0,0,0-2.55,5.43,6.1,6.1,0,0,0,2.17,5.05q2.17,1.75,7.65,3.35l2.83.85a17.64,17.64,0,0,1,8.22,4.72A11,11,0,0,1,861,80.82a12,12,0,0,1-1,5,11.39,11.39,0,0,1-3,4,14,14,0,0,1-5,2.65,22.7,22.7,0,0,1-6.85.94,34.88,34.88,0,0,1-7.46-.71A27.79,27.79,0,0,1,832,90.83L833.32,87a22.93,22.93,0,0,0,5.1,1.84,27.77,27.77,0,0,0,6.23.61q5.38,0,8.31-2.08a6.85,6.85,0,0,0,2.93-6,7.33,7.33,0,0,0-2.12-5.24q-2.13-2.22-7.51-3.92l-3-.94q-11.05-3.49-11.05-11.62A10.89,10.89,0,0,1,836.3,51a14.74,14.74,0,0,1,4.63-2.46,18.89,18.89,0,0,1,6-.9,42.91,42.91,0,0,1,6.23.47A19.32,19.32,0,0,1,859,49.93Z" transform="translate(-0.06 -0.06)"/>
        <path d="M896.8,52H881.87V81.1q0,4.44,2,6a8.65,8.65,0,0,0,5.48,1.56,23.64,23.64,0,0,0,5.1-.52,34.06,34.06,0,0,0,4-1.09l.76,3.68a27.75,27.75,0,0,1-4.63,1.32,29.9,29.9,0,0,1-6,.57q-5.67,0-8.6-2.69T877,81.76V52h-8V48.23h8V34.06h4.91V48.23H896.8Z" transform="translate(-0.06 -0.06)"/>
        <path d="M912.86,36.8a3.72,3.72,0,0,1-2.6-1A3.58,3.58,0,0,1,909.17,33a4,4,0,0,1,1-2.93,3.46,3.46,0,0,1,2.55-1,3.6,3.6,0,0,1,2.5,1,3.83,3.83,0,0,1,1.09,3,3.64,3.64,0,0,1-1,2.83A3.53,3.53,0,0,1,912.86,36.8ZM910.3,92.63V48.23h4.91v44.4Z" transform="translate(-0.06 -0.06)"/>
        <path d="M956.59,48.23h5.2L946.2,92.63h-4.34l-15.78-44.4h5.2l10.49,31.46L944,88.47h.19l2.08-8.69Z" transform="translate(-0.06 -0.06)"/>
        <path d="M970.67,52.1a41.31,41.31,0,0,1,8.17-3.4,29.65,29.65,0,0,1,8-1,18.87,18.87,0,0,1,5.71.85,12.28,12.28,0,0,1,4.72,2.74,13.05,13.05,0,0,1,3.21,5,21,21,0,0,1,1.18,7.51V92.63h-3.4l-1-5.86H997a17.68,17.68,0,0,1-6.42,5,19.86,19.86,0,0,1-8.22,1.65,17.85,17.85,0,0,1-5.76-.9,13.33,13.33,0,0,1-4.58-2.6,11.88,11.88,0,0,1-3-4.11,13.84,13.84,0,0,1,.33-11.48,12.34,12.34,0,0,1,4-4.39,18.18,18.18,0,0,1,6.09-2.6,33.83,33.83,0,0,1,7.89-.85h9.45V63.53q0-6.42-2.83-9.16a10.16,10.16,0,0,0-7.37-2.74,27.87,27.87,0,0,0-6.33.85,30.11,30.11,0,0,0-7.65,3.12Zm26.07,18.23-7.84.09a31.44,31.44,0,0,0-7.27.9,16.89,16.89,0,0,0-5,2.08,7.67,7.67,0,0,0-2.79,3,8.43,8.43,0,0,0-.85,3.73,9.53,9.53,0,0,0,.85,4.2,8.22,8.22,0,0,0,2.27,2.88,9,9,0,0,0,3.35,1.65,15.78,15.78,0,0,0,4.11.52,15.15,15.15,0,0,0,3.5-.42,15.64,15.64,0,0,0,3.54-1.32A17.42,17.42,0,0,0,994,85.4,12.5,12.5,0,0,0,996.74,82Z" transform="translate(-0.06 -0.06)"/>
        <path d="M1017.33,92.63V25.56h4.91V92.63Z" transform="translate(-0.06 -0.06)"/>
      </g>
    </g>
  </g>
</svg>
