<svg xmlns="http://www.w3.org/2000/svg" viewBox="0 0 503.28 503.27">
  <defs>
    <style>
      .\35 9f59df8-37b4-4e7e-9d89-5f3b2354073c {
        fill: #6265ad;
      }

      .\33 b414437-d40a-48c6-87ce-0e12f58c871f {
        fill: #db6b49;
      }

      .\36 8be8c43-66cf-4f38-92a0-5d87c29aabff {
        fill: #69afa1;
      }

      .a1a08b74-d88c-4964-bee3-d6891f3c5a59 {
        fill: #f3af3d;
      }
    </style>
  </defs>
  <title>logo</title>
  <g id="8a9d9cbe-f9b9-4789-8d66-6d53a379e1a7" data-name="Layer 2">
    <g id="e12a94ab-a13d-402d-9123-eaeefa75ed6b" data-name="Layer 1">
      <g>
        <path class="59f59df8-37b4-4e7e-9d89-5f3b2354073c" d="M120.35,48.29a190.84,190.84,0,0,0,77.3,16.17v49.4a191.68,191.68,0,0,0-113.4,37,301.7,301.7,0,0,0,113.4,22.1v49.4a83.89,83.89,0,0,0-83.79,83.79H64.46a132.86,132.86,0,0,1,41-96.09,346.43,346.43,0,0,1-77.43-31.41L.25,163.19l21.86-23.12a240.39,240.39,0,0,1,69-50.91,240.54,240.54,0,0,1-69-50.9L58,4.31A191.48,191.48,0,0,0,120.35,48.29Z" transform="translate(-0.25 -0.25)"/>
        <path class="3b414437-d40a-48c6-87ce-0e12f58c871f" d="M503.53,340.58,481.66,363.7a240.53,240.53,0,0,1-69,50.91,240.68,240.68,0,0,1,69,50.9l-35.89,33.95a191.52,191.52,0,0,0-139.64-60.15v-49.4a191.68,191.68,0,0,0,113.4-37,301.73,301.73,0,0,0-113.4-22.1v-49.4a83.88,83.88,0,0,0,83.78-83.79h49.4a132.81,132.81,0,0,1-41,96.08,346.46,346.46,0,0,1,77.43,31.42Z" transform="translate(-0.25 -0.25)"/>
        <path class="68be8c43-66cf-4f38-92a0-5d87c29aabff" d="M465.52,22.11,499.46,58a191.66,191.66,0,0,0-60.15,139.64h-49.4a191.57,191.57,0,0,0-37-113.4,301.93,301.93,0,0,0-22.1,113.4h-49.4a83.88,83.88,0,0,0-83.78-83.78V64.46a132.8,132.8,0,0,1,96.07,41,347.41,347.41,0,0,1,31.42-77.43L340.58.25l23.13,21.86a240.63,240.63,0,0,1,50.9,69A240.66,240.66,0,0,1,465.52,22.11Z" transform="translate(-0.25 -0.25)"/>
        <path class="a1a08b74-d88c-4964-bee3-d6891f3c5a59" d="M306.13,389.91v49.4a132.83,132.83,0,0,1-96.08-41,346.46,346.46,0,0,1-31.42,77.43l-15.44,27.82-23.12-21.86a240.66,240.66,0,0,1-50.91-69,240.44,240.44,0,0,1-50.9,69L4.32,445.77a191.6,191.6,0,0,0,44-62.35,190.8,190.8,0,0,0,16.17-77.29h49.4a191.77,191.77,0,0,0,37,113.4A301.74,301.74,0,0,0,173,306.13h49.4A83.88,83.88,0,0,0,306.13,389.91Z" transform="translate(-0.25 -0.25)"/>
      </g>
    </g>
  </g>
</svg>
